<svg id="Layer_1" data-name="Layer 1" xmlns="http://www.w3.org/2000/svg" viewBox="0 0 930 487"><defs><style>.cls-1{fill:#fff;}.cls-2{fill:#e17b76;stroke:#a95562;stroke-miterlimit:10;}</style></defs><rect class="cls-1" width="930" height="487"/><path class="cls-2" d="M93.39,314.81a58.66,58.66,0,0,1-6.65-.36,45.12,45.12,0,0,1-6-1c-10.86-2.56-18.62-6.59-23.27-11.84s-7-11.11-6.88-17.46a35.14,35.14,0,0,1,5-16.85,58,58,0,0,1,13.19-15.5A68.15,68.15,0,0,1,88,240.59c7.2-2.81,86.35-30.16,94.44-30,2.22,0,4.65-.61,7.54-.12a16.92,16.92,0,0,1,5.43,1.59c.77.61.22,1.34.22,2.32,0,1.34.11,1.95-1.55,1.83h-1.22a18.41,18.41,0,0,1-4.32-.49,28.05,28.05,0,0,0-4.44-.49c-6.54-.12-84,28.08-89.89,30.65a58.58,58.58,0,0,0-15.63,9.89,49.36,49.36,0,0,0-10.76,13.42,30.25,30.25,0,0,0-4,14.41,21.23,21.23,0,0,0,5,14c3.44,4.15,9.09,7.2,17,8.91,1.44.25,3.1.49,4.66.73a32.3,32.3,0,0,0,4.65.49A47.3,47.3,0,0,0,116.56,303,65.08,65.08,0,0,0,135,289.91a67.72,67.72,0,0,0,13-18,42.75,42.75,0,0,0,4.87-19,30.71,30.71,0,0,0-2.55-12.7,26.72,26.72,0,0,0-9-10.5,88.23,88.23,0,0,0-15.74-8.79c-5.66-2.44-11.31-4.76-17-7.08A136,136,0,0,1,92.39,206a51.53,51.53,0,0,1-13.52-11.11,30.12,30.12,0,0,1-6.1-11A41.82,41.82,0,0,1,71,171a51.61,51.61,0,0,1,2.88-16.12,58.91,58.91,0,0,1,7.32-14.65,63.66,63.66,0,0,1,17-16.72,74.48,74.48,0,0,1,20.28-9.65,65.62,65.62,0,0,1,20.62-3h.77c12.86.24,22.28,3,28.16,8.67s8.76,12,8.65,19a30.69,30.69,0,0,1-5.55,16.61A41.07,41.07,0,0,1,156,168.68q-9.65,5.31-23,5.13h-.77a2.44,2.44,0,0,1-2.11-1.59,6,6,0,0,1-.89-2.69c0-1,.34-1.34,1-1.34a29,29,0,0,0,17.07-5.37,43.65,43.65,0,0,0,13.19-13.67c3.44-5.5,5.1-10.75,5.21-15.75a16.59,16.59,0,0,0-4.65-11.48c-3.11-3.3-8.54-5-16.19-5.13h-.66a49.67,49.67,0,0,0-20,4.15,77.68,77.68,0,0,0-18.74,11.48,67.65,67.65,0,0,0-14.07,15.87A34.1,34.1,0,0,0,86,166a25.91,25.91,0,0,0,2.11,10.38,26.38,26.38,0,0,0,7.2,9.4,56.7,56.7,0,0,0,15.86,9.52c6.31,2.57,12.85,5.13,19.73,7.69A110.43,110.43,0,0,1,150,212.39a44,44,0,0,1,14.41,14c3.66,5.74,5.43,13.19,5.32,22.1,0,1.83-.11,3.79-.22,5.86a36,36,0,0,1-.89,6.11,59.14,59.14,0,0,1-10.86,25.27,65.2,65.2,0,0,1-19.18,16.72,91.5,91.5,0,0,1-23.05,9.16A73,73,0,0,1,93.39,314.81Z"/><path class="cls-2" d="M190.6,291.74a8.62,8.62,0,0,1-6.65-3.42c-2-2.2-3.44-5.74-4.32-10.25a46,46,0,0,1-.89-8.06c-.22-3.3-.22-6.72-.22-10.26,0-5.49.22-11.23.55-17.09s.89-11.23,1.56-16.24A67.25,67.25,0,0,1,183,215.07a8.5,8.5,0,0,1,3.11-3.91,10.17,10.17,0,0,1,6-1.7,18.87,18.87,0,0,1,5.1.73c-.33,1.34-1,4.64-1.88,9.76s-1.78,10.87-2.44,17.1c-.44,4.39-.89,8.79-1.22,13.43s-.55,8.79-.55,12.81a59.25,59.25,0,0,0,1.21,12.82c.78,3.42,2.11,5.13,3.88,5.13,2.11,0,4-1.46,5.66-4.27a45.66,45.66,0,0,0,4.32-10.62,109.33,109.33,0,0,0,2.88-12.7q1.5-9.35,2.66-20.14c.78-7.21,1.67-13.31,2.66-18.44a6.55,6.55,0,0,1,3-3.91,10.79,10.79,0,0,1,6.09-1.7,18.87,18.87,0,0,1,5.1.73,91.32,91.32,0,0,0-2.66,12.33c-.89,5.49-1.55,11.6-2.11,18.19s-.88,13.18-.88,19.65c0,3.3.11,6.84.44,10.75a38.11,38.11,0,0,0,1.89,9.89c1,2.8,2.32,4.15,4.1,4.15h.22a4.79,4.79,0,0,0,3-1.47c1.11-1,2.22-2.93,3.44-5.61a32.53,32.53,0,0,0,2.33-6.23c.66-2.32,1.44-4.88,2.21-7.69.45-1.1.89-1.71,1.33-1.71s.89.73.89,2.2v.73a47,47,0,0,1-2.33,11.11,33.1,33.1,0,0,1-5.65,10.74c-2.44,3-5.32,4.52-8.65,4.52A10.79,10.79,0,0,1,217,287.1a30.47,30.47,0,0,1-4.87-11.23,76.24,76.24,0,0,1-1.89-12.82c-.77,3.3-1.66,6.47-2.66,9.77a42.8,42.8,0,0,1-3.66,8.66Q197.58,291.74,190.6,291.74Z"/><path class="cls-2" d="M254.56,360c-6.21,0-10.53-1.71-13.19-5.13a20.25,20.25,0,0,1-4-12.82,45.88,45.88,0,0,1,1.88-12.33A85.43,85.43,0,0,1,244,316.89a57.71,57.71,0,0,1,10.31-15.51,128.31,128.31,0,0,1,13.08-12.69,142.56,142.56,0,0,1,11.64-8.91v-1.35c0-2.19-.11-5.25-.22-9.15s-.34-7.94-.56-12.21-.44-7.94-.66-11.23c-.23.85-.45,1.71-.67,2.56s-.44,1.59-.66,2.32c-1,4.27-2.22,8.79-3.55,13.67A89,89,0,0,1,268,277.94a42.08,42.08,0,0,1-6.09,10.26q-3.5,4-7.65,4a9,9,0,0,1-7.1-3.05,19.17,19.17,0,0,1-4-7.57,53.77,53.77,0,0,1-1.88-9.53c-.33-3.29-.56-6.22-.56-8.79a123.41,123.41,0,0,1,3.11-28.44c2.1-9,5.65-16.24,10.86-21.61a20.49,20.49,0,0,1,7-5,18.3,18.3,0,0,1,6.77-1.46,15.61,15.61,0,0,1,12.52,6.47,9.06,9.06,0,0,1,4.55-3.3,15.85,15.85,0,0,1,4.54-.61h2c1.66,0,2.55.37,2.55,1.1,0,.25-.23.61-.67,1.1-1.11,1.1-2,3.3-2.66,6.59A80,80,0,0,0,290,229.6c-.22,4.39-.33,9-.33,13.79,0,5.38.11,10.5.22,15.51s.22,8.79.22,11.48v2.07c3.11-2.07,6-3.78,8.43-5.13a13,13,0,0,1,5.54-1.95c.22,0,.44,0,.55.12a.39.39,0,0,0,.34.12,1.23,1.23,0,0,1,.88,1.35,3.52,3.52,0,0,1-.33,1.46,1,1,0,0,1-1,.61,13,13,0,0,0-5.43,2.32,38,38,0,0,0-6.32,4.89c-1.88,1.83-2.88,3.41-2.88,4.76v3.05c0,17.21-1.55,31.5-4.77,42.73s-7.42,19.65-12.74,25.15C266.64,357.18,260.77,360,254.56,360Zm-1.88-4c5.54,0,10.08-2.93,13.74-8.79S273,333,275.07,322.38a249.45,249.45,0,0,0,4-38,57.32,57.32,0,0,0-8.21,7,115.23,115.23,0,0,0-11.52,13.07,73.5,73.5,0,0,0-10,17.7A72.72,72.72,0,0,0,246,332.76a43.21,43.21,0,0,0-1.22,9.52c0,4.15.66,7.45,2.1,10A6.34,6.34,0,0,0,252.68,356Zm5.65-78.87h.55c2.11,0,4.1-1.59,5.77-4.64a54.3,54.3,0,0,0,4.65-11.84,146.63,146.63,0,0,0,3.66-15c1.11-5.13,1.89-9.89,2.66-14s1.22-7.2,1.55-9a21.24,21.24,0,0,1,2.33-7.45,6.15,6.15,0,0,0-5.21-2.68,12.2,12.2,0,0,0-8.65,3.54,27.86,27.86,0,0,0-6.09,9.4,71.56,71.56,0,0,0-3.88,12.33A108.36,108.36,0,0,0,253.56,250a90.63,90.63,0,0,0-.66,9.89c0,.85,0,2.19.11,4.15a37.85,37.85,0,0,0,.55,5.86,21,21,0,0,0,1.55,5.25A3.94,3.94,0,0,0,258.33,277.09Z"/><path class="cls-2" d="M352.88,291.86a10.65,10.65,0,0,1-8.42-3.66,26.88,26.88,0,0,1-5-9.4A59.59,59.59,0,0,1,337,267.2a95.49,95.49,0,0,1-.67-10.38,141.67,141.67,0,0,1-5.09,16.49,61.61,61.61,0,0,1-6.77,13.18c-2.43,3.42-5.21,5.13-8.09,5.13h-.22c-2.66,0-5-1.47-6.76-4.28a32.06,32.06,0,0,1-4-11.1,79.8,79.8,0,0,1-1.33-15v-1.83a132.37,132.37,0,0,1,1.22-16.61,79.4,79.4,0,0,1,4.21-17.33,36.41,36.41,0,0,1,8.31-13.55,18.48,18.48,0,0,1,13.53-5.38,10.33,10.33,0,0,1,5.76,1.59,8.89,8.89,0,0,1,3.77,4.64,8.74,8.74,0,0,1,3.21-2.44,11.78,11.78,0,0,1,4.88-1,14.23,14.23,0,0,1,2.22.25,24.83,24.83,0,0,1,2.66.61c-.67,2.93-1.44,6.83-2.33,11.84s-1.66,10.5-2.33,16.36a156.8,156.8,0,0,0-.88,17.33v.74q0,3.48.33,8.42a83.26,83.26,0,0,0,1.22,9.52,29.7,29.7,0,0,0,2.33,7.82c1,2.07,2.32,3.17,3.88,3.17h.22a4.84,4.84,0,0,0,3-1.46c1.11-1,2.22-2.93,3.44-5.62a83.89,83.89,0,0,0,4.65-14c.22-1.1.67-1.71,1.33-1.71s.89.73.89,2.2v.73a47,47,0,0,1-2.33,11.11,33.1,33.1,0,0,1-5.65,10.74A10.77,10.77,0,0,1,352.88,291.86Zm-30.7-15.5c1.77,0,3.43-1.47,5-4.28a55.45,55.45,0,0,0,4.11-10.49c1.22-4.16,2.32-8.18,3.21-12A115.22,115.22,0,0,0,337.14,232,105.32,105.32,0,0,1,340,214.46a6,6,0,0,0-4.54-2.44c-2.44,0-5,1.34-7.54,4.15a34.32,34.32,0,0,0-6.1,9.4,69.08,69.08,0,0,0-4,15.38,113,113,0,0,0-1.22,16.85c0,1.34,0,2.81.11,4.15s.12,2.69.23,3.91c.22,3.78.88,6.47,1.88,8.06S321,276.36,322.18,276.36Z"/><path class="cls-2" d="M398.66,291.86a10.6,10.6,0,0,1-8.76-4,23.8,23.8,0,0,1-4.43-10.5,68.48,68.48,0,0,1-1.22-13.91,148.64,148.64,0,0,1,.89-15.87c.66-5.13,1.33-9.77,2-13.8s1.22-6.71,1.55-8.3a21.76,21.76,0,0,1-7.42-1.71,16.56,16.56,0,0,1-4.55-3.18c-.44,6-1.11,12.46-2.1,19.29s-2,13.43-3.33,19.78a142.62,142.62,0,0,1-4,16.24c-.44,1.59-1.22,2.44-2.22,2.44-.77,0-1.22-.61-1.22-1.71a3.13,3.13,0,0,1,.12-1,3.84,3.84,0,0,1,.22-1.09,163.54,163.54,0,0,0,4.54-18.8C370,248.89,371,242.3,371.61,236a157.33,157.33,0,0,0,1-16v-2.07a12.79,12.79,0,0,1-6.1-6,16.2,16.2,0,0,1-1.88-7.45,12.1,12.1,0,0,1,.89-4.64,3.09,3.09,0,0,1,2.77-2.08h.33c1.55,0,3,1.23,4.21,3.67a42.1,42.1,0,0,1,3,8.06,29.62,29.62,0,0,1,1.22,7.08,13.61,13.61,0,0,0,4.43,2.44,14.86,14.86,0,0,0,4.1.73c1.44,0,2.44-.24,2.88-.73a53.31,53.31,0,0,0,3.33-4.28,7,7,0,0,1,6.09-2.8,17.2,17.2,0,0,1,6.88,1.83,93.57,93.57,0,0,0-3.66,10.62,123.89,123.89,0,0,0-2.88,12.45c-.11,1-.45,3-.89,6s-.89,6.47-1.22,10.26-.55,7.69-.55,11.6a62.65,62.65,0,0,0,1.55,14.53q1.67,6.22,6,6.22a6,6,0,0,0,4.66-2.44,23.35,23.35,0,0,0,3.55-6.1,73.61,73.61,0,0,0,2.55-7.09c.66-2.31,1.22-4.15,1.55-5.49.22-1.1.66-1.71,1.33-1.71s.89.73.89,2.08v1c0,5.74-.89,10.63-2.78,14.53a20.82,20.82,0,0,1-7.2,8.79A14.75,14.75,0,0,1,398.66,291.86Z"/><path class="cls-2" d="M484.9,308.59a31.82,31.82,0,0,1-12.75-2.32,14.31,14.31,0,0,1-7.65-7,44.52,44.52,0,0,1-4.87,2.44,16.36,16.36,0,0,1-6.65,1.47,9,9,0,0,1-5.55-1.71c-3.54-2.81-6-7.57-7.31-14.17a176.13,176.13,0,0,1-2.89-22.09c-.11-2.57-.22-5.25-.33-7.94s-.11-5.37-.11-8.18c0-9.52.44-19.16,1.22-29.18s1.89-19.41,3.1-28.44,2.66-17,4.11-23.93a137.16,137.16,0,0,1,4-15.75,4.67,4.67,0,0,1,2.66-1.34,20.9,20.9,0,0,1,5.1-.61,19.27,19.27,0,0,1,6,.85,6.66,6.66,0,0,1,4.21,3.54c-.44,2.32-1.44,6.72-3.1,13.07s-3.33,14.28-5.21,23.56-3.55,19.29-5.1,30.15A295.5,295.5,0,0,0,451,254v6.1c0,5.62.22,11.23.78,17.09a59.16,59.16,0,0,0,2.88,14.65c1.44,4,3.32,6.11,5.87,6.23H461a6.34,6.34,0,0,0,1.44-.12l1.66-.37a13,13,0,0,1-.44-3.17c0-4.77,2.21-10,6.65-15.88s10.64-11.35,18.51-16.35a72.21,72.21,0,0,1,26.93-10.26,5.43,5.43,0,0,1,1.22-.24h.78c1.66,0,2.44.36,2.44,1.22s-1.11,1.71-3.33,2.19a52.56,52.56,0,0,0-16.18,5.62,84.1,84.1,0,0,0-14,9.4,60.91,60.91,0,0,0-9.86,10.38c-2.44,3.42-3.66,6.35-3.66,8.54a4.19,4.19,0,0,0,2.44,4,13.83,13.83,0,0,0,6.43,1.35,43.56,43.56,0,0,0,14-2.69,67.57,67.57,0,0,0,15.63-7.81,46.29,46.29,0,0,0,12.64-12.46,28.52,28.52,0,0,0,5-16.36,25.46,25.46,0,0,0-4.1-14c-2.78-4.27-7.32-7.81-13.64-10.49s-14.85-4-25.49-4a53.53,53.53,0,0,0-8.65.73,28,28,0,0,0-8.64,2.93,3.83,3.83,0,0,0-1.22.12,2.89,2.89,0,0,1-1,.12c-2.77,0-4.77-.73-6-2.32a7.83,7.83,0,0,1-1.77-5,8.41,8.41,0,0,1,1.33-4.76c.89-1.35,1.88-2.08,2.88-2.08a103.33,103.33,0,0,0,19.95-2.93,75.58,75.58,0,0,0,18.85-7.81,117.07,117.07,0,0,0,14.52-10,63.75,63.75,0,0,0,13.08-14.29,32.23,32.23,0,0,0,5.43-18.31c0-4.76-1.33-8.55-4.1-11.35a27.91,27.91,0,0,0-10.86-6.72,68.48,68.48,0,0,0-14.75-3.29,137.45,137.45,0,0,0-15.74-.86c-5,0-9.75.12-14.07.49s-7.76.61-10.31,1c-3.55.36-8.54,1.1-15.08,2.44s-13.52,3.05-20.95,5.13a136.15,136.15,0,0,0-21.28,7.93A68,68,0,0,0,391,168.43c-4.32,4-6.54,8.55-6.54,13.56a12.28,12.28,0,0,0,4.55,9.88c3,2.57,6.87,3.79,11.64,3.79s10.42-1.47,16.51-4.27,12.42-7.57,18.73-14c.34-.37.56-.49.67-.49.33,0,.44.36.44,1a13.08,13.08,0,0,1-4,8.54,51.32,51.32,0,0,1-35.69,15.38c-1.44,0-3-.12-4.43-.24a24,24,0,0,1-4.22-.73A21.07,21.07,0,0,1,376.82,193a22.1,22.1,0,0,1-4.32-13.43,29,29,0,0,1,6.43-18.8,54.59,54.59,0,0,1,17-13.55A119,119,0,0,1,419,137.91a240.84,240.84,0,0,1,24.71-5.86c3.66-.61,8.1-1.22,13.08-1.58s10.31-.61,16-.61a192.42,192.42,0,0,1,24.83,1.71,98.92,98.92,0,0,1,23.38,6,43.14,43.14,0,0,1,17.3,11.84c4.32,5,6.54,11.48,6.54,19.17a37,37,0,0,1-5.1,19,61.3,61.3,0,0,1-13.3,15.63,92.66,92.66,0,0,1-17.3,11.84A90.72,90.72,0,0,1,492,222.4a94.48,94.48,0,0,1,23,4.27,38.83,38.83,0,0,1,18,11.6c4.65,5.37,7,12.94,7,22.58a40.76,40.76,0,0,1-5.32,20.88,46.11,46.11,0,0,1-13.75,15,63.11,63.11,0,0,1-17.95,9A64.85,64.85,0,0,1,484.9,308.59Z"/><path class="cls-2" d="M562.38,296.87a12.19,12.19,0,0,1-9.64-4.28,28.62,28.62,0,0,1-5.21-10.37,56.08,56.08,0,0,1-2-11.36c-.22-3.41-.44-7-.55-10.74s-.22-7.81-.22-12.09c0-7.69.22-15.75.55-24.05s1-16.23,1.88-24,1.89-14.77,3.11-20.87a82.91,82.91,0,0,1,3.21-10.75,33.56,33.56,0,0,1,5.77-10.37,10.54,10.54,0,0,1,8.42-4.4c6.65,0,10,5.62,10,16.73a139.32,139.32,0,0,1-1.89,18.8,184.71,184.71,0,0,1-7,27.47,164.17,164.17,0,0,1-6,15.87c-2.32,5.37-4.54,10.13-6.76,14.52a28.62,28.62,0,0,0-.22,3.06v3c0,4.27.11,8.55.44,12.94a93.44,93.44,0,0,0,1.56,12.09,30.57,30.57,0,0,0,3.1,8.91c1.33,2.2,3.1,3.42,5.21,3.42a6.89,6.89,0,0,0,6-3.42,29.35,29.35,0,0,0,3.44-6.72,24,24,0,0,0,1.22-3.78c.44-1.34.78-2.81,1.22-4.27s1.11-2.08,1.88-2.08c.56,0,.89.73.89,2.08v.36a15.55,15.55,0,0,1-.44,3.42c-.34,1.34-.67,2.81-1.11,4.15A34.67,34.67,0,0,1,573.35,292,13.61,13.61,0,0,1,562.38,296.87Zm-6.21-58.11c2.88-6.6,5.66-13.68,8.09-21.13a217.38,217.38,0,0,0,6-22A93.84,93.84,0,0,0,572.47,176a41,41,0,0,0-.78-9c-.55-2.32-1.44-3.54-2.77-3.54s-2.44,1.46-3.44,4.27a76.24,76.24,0,0,0-3,11.11c-.89,4.64-1.66,9.65-2.44,14.9s-1.33,10.62-1.88,15.74-.89,9.77-1.22,13.68-.44,6.84-.56,8.54c0,.74,0,1.71-.11,2.93S556.28,237.17,556.17,238.76Z"/><path class="cls-2" d="M597.74,298a12.92,12.92,0,0,1-9.31-3.42,21.23,21.23,0,0,1-5.54-8.79,49.14,49.14,0,0,1-2.66-11.84,98,98,0,0,1-.78-12.7c0-3.18.11-6,.33-8.67s.45-5,.56-7.08A69.36,69.36,0,0,1,584,229.6a33.38,33.38,0,0,1,8.42-13.31c3.66-3.54,8.53-5.37,14.63-5.37,4.1,0,7.43,1.47,9.65,4.52a28.87,28.87,0,0,1,4.87,11.72A74.16,74.16,0,0,1,623,242.3a136.75,136.75,0,0,1-.88,15.26A105.62,105.62,0,0,1,620,269.4a65.67,65.67,0,0,1-4.32,12.45,41.37,41.37,0,0,1-7.54,11.35C605.06,296.38,601.62,298,597.74,298Zm5.54-10.26c2.33,0,4.33-1.22,6-3.78a35.91,35.91,0,0,0,4.1-8.67,66.29,66.29,0,0,0,2.33-8.3c.44-2,.77-4.52,1.11-7.45a88.89,88.89,0,0,0,.44-9.52,76.78,76.78,0,0,0-1.55-15.14c-1-4.88-2.88-8.43-5.54-10.38a4.36,4.36,0,0,1-2-3.54,4.54,4.54,0,0,1,1-2.81,12.49,12.49,0,0,1,1.66-1.83,5.56,5.56,0,0,0-3.21-1.34c-2,0-3.77,1.22-5.44,3.78a38.63,38.63,0,0,0-4,9c-1.1,3.54-1.88,6.83-2.55,10a59.79,59.79,0,0,0-1.1,6.71c-.11,1.35-.34,3.42-.56,6.23s-.33,5.86-.33,9.28a95.25,95.25,0,0,0,.78,12.69,37.61,37.61,0,0,0,2.77,10.75C598.74,286.25,600.62,287.71,603.28,287.71Z"/><path class="cls-2" d="M644.85,298.21a20,20,0,0,1-12.75-4c-3.43-2.68-5.1-7.45-5.1-14.28a15.36,15.36,0,0,1,.11-1.83c.12-1,.12-2,.23-2.93a13.09,13.09,0,0,1-1-5.62,10.68,10.68,0,0,1,.66-3.91c.45-1.09,1.11-1.71,2-1.71h.22c.33,0,.78.49,1.33,1.35q2.16-7,4-14.29c1.22-4.88,2.33-9.4,3.33-13.18,1.11-4.52,2.55-9.28,4.32-14.53a24.31,24.31,0,0,1,8.31-12,16,16,0,0,1,9.43-3.18,2.52,2.52,0,0,1,.88.12,2.39,2.39,0,0,0,.89.13c.89.12,1.33.61,1.33,1.34s-.44,1.34-1.22,1.34c-1.22.12-2.11,1.22-2.66,3.3a26.85,26.85,0,0,0-.89,7.08v2.07a6.31,6.31,0,0,0,.22,2.08,70.06,70.06,0,0,0,3,13.55c1.55,4.88,3.1,9.89,4.43,14.77a49,49,0,0,1,2.11,13.8v1c0,1.58-.11,3.41-.22,5.25a33.4,33.4,0,0,1-1.11,5.49c1.55-.12,3.1-.37,4.65-.61a29.13,29.13,0,0,0,4.1-1.22,11.82,11.82,0,0,0,3.77-2.57,12,12,0,0,0,2.44-3.41,1.12,1.12,0,0,1,.89-.61c.88,0,1.33.61,1.33,1.83a3.48,3.48,0,0,1-.33,1.34,13.71,13.71,0,0,1-6.77,6.71,27.67,27.67,0,0,1-11.41,3.06A25,25,0,0,1,658,294.18C654.72,296.75,650.28,298.21,644.85,298.21ZM640.31,292H641a14.36,14.36,0,0,0,6.1-2.32,11,11,0,0,0,4.32-6.1c0-.12,0-.24.11-.24s.11-.13.11-.25A79.92,79.92,0,0,1,640,281.24a37.07,37.07,0,0,1-8.86-3.05,3.47,3.47,0,0,1-.12,1.1,3.3,3.3,0,0,0-.11,1c0,3.79.89,6.72,2.66,8.67A8.11,8.11,0,0,0,640.31,292Zm12.52-15c.22-1.35.44-2.81.56-4.28s.22-3.05.22-4.51c0-2.32-.11-4.76-.34-7.21s-.55-4.88-.88-7.2c-.78-5.86-1.67-11.23-2.77-16.11a59.32,59.32,0,0,1-1.56-13.07,28.83,28.83,0,0,1,.56-5.49c-.56,0-1.22,1-1.89,2.81s-1.33,4-2,6.35-1.22,4.51-1.66,6.34c-1.33,5.38-2.77,10.87-4.33,16.61s-3.21,11.23-5.1,16.72c1.22.86,2.66,1.71,4.33,2.69s3.21,1.71,4.76,2.44,3.11,1.47,4.77,2.2S651,276.48,652.83,277Z"/><path class="cls-2" d="M697.83,298.21a20,20,0,0,1-12.74-4c-3.44-2.68-5.1-7.45-5.1-14.28a15.36,15.36,0,0,1,.11-1.83c.11-1,.11-2,.22-2.93a13.25,13.25,0,0,1-1-5.62,10.47,10.47,0,0,1,.67-3.91c.44-1.09,1.11-1.71,2-1.71h.23c.33,0,.77.49,1.33,1.35q2.16-7,4-14.29c1.22-4.88,2.32-9.4,3.32-13.18,1.11-4.52,2.55-9.28,4.32-14.53a24.39,24.39,0,0,1,8.32-12,16,16,0,0,1,9.42-3.18,2.6,2.6,0,0,1,.89.12,2.34,2.34,0,0,0,.88.13c.89.12,1.33.61,1.33,1.34s-.44,1.34-1.22,1.34c-1.22.12-2.1,1.22-2.66,3.3a27.29,27.29,0,0,0-.88,7.08v2.07a6.31,6.31,0,0,0,.22,2.08,69.25,69.25,0,0,0,3,13.55c1.55,4.88,3.11,9.89,4.44,14.77a49,49,0,0,1,2.1,13.8v1c0,1.58-.11,3.41-.22,5.25a31.44,31.44,0,0,1-1.11,5.49c1.55-.12,3.11-.37,4.66-.61a29.13,29.13,0,0,0,4.1-1.22A12.06,12.06,0,0,0,732.2,275a12.41,12.41,0,0,0,2.44-3.41,1.1,1.1,0,0,1,.88-.61c.89,0,1.33.61,1.33,1.83a3.48,3.48,0,0,1-.33,1.34,13.72,13.72,0,0,1-6.76,6.71,27.76,27.76,0,0,1-11.42,3.06A25,25,0,0,1,711,294.18C707.7,296.75,703.27,298.21,697.83,298.21ZM693.29,292H694a14.31,14.31,0,0,0,6.1-2.32,10.86,10.86,0,0,0,4.32-6.1c0-.12,0-.24.12-.24s.11-.13.11-.25A79.49,79.49,0,0,1,693,281.24a37.32,37.32,0,0,1-8.87-3.05,3.78,3.78,0,0,1-.11,1.1,3.3,3.3,0,0,0-.11,1c0,3.79.88,6.72,2.66,8.67A8.09,8.09,0,0,0,693.29,292Zm12.53-15c.22-1.35.44-2.81.55-4.28s.22-3.05.22-4.51c0-2.32-.11-4.76-.33-7.21s-.56-4.88-.89-7.2c-.77-5.86-1.66-11.23-2.77-16.11a59.26,59.26,0,0,1-1.55-13.07,28.85,28.85,0,0,1,.55-5.49c-.55,0-1.22,1-1.88,2.81s-1.33,4-2,6.35-1.22,4.51-1.66,6.34c-1.33,5.38-2.77,10.87-4.32,16.61s-3.22,11.23-5.1,16.72c1.22.86,2.66,1.71,4.32,2.69s3.22,1.71,4.77,2.44,3.1,1.47,4.76,2.2S703.93,276.48,705.82,277Z"/><path class="cls-2" d="M753.15,298a12.9,12.9,0,0,1-9.31-3.42,21.25,21.25,0,0,1-5.55-8.79,49.62,49.62,0,0,1-2.66-11.84c-.55-4.28-12.74-14.41-12.74-18.56,0-3.18,12.19-.12,12.41-2.81s.44-5,.55-7.08a70.42,70.42,0,0,1,3.66-15.87,33.51,33.51,0,0,1,8.43-13.31c3.65-3.54,8.53-5.37,14.63-5.37,4.1,0,7.43,1.47,9.64,4.52a28.74,28.74,0,0,1,4.88,11.72,74.16,74.16,0,0,1,1.44,15.14,134.36,134.36,0,0,1-.89,15.26,106,106,0,0,1-2.1,11.84,65,65,0,0,1-4.33,12.45,41.12,41.12,0,0,1-7.53,11.35C760.46,296.38,757,298,753.15,298Zm5.54-10.26c2.33,0,4.32-1.22,6-3.78a35.55,35.55,0,0,0,4.11-8.67,66,66,0,0,0,2.32-8.3,71.7,71.7,0,0,0,1.11-7.45,86.31,86.31,0,0,0,.45-9.52,76.79,76.79,0,0,0-1.56-15.14c-1-4.88-2.88-8.43-5.54-10.38a4.35,4.35,0,0,1-2-3.54,4.59,4.59,0,0,1,1-2.81,12.44,12.44,0,0,1,1.67-1.83A5.56,5.56,0,0,0,763,215c-2,0-3.77,1.22-5.43,3.78a38.63,38.63,0,0,0-4,9c-1.11,3.54-1.88,6.83-2.55,10a60.49,60.49,0,0,0-1.11,6.71c-.11,1.35-.33,3.42-.55,6.23s-.33,5.86-.33,9.28a97,97,0,0,0,.77,12.69,37.94,37.94,0,0,0,2.77,10.75C754.14,286.25,756.14,287.71,758.69,287.71Z"/><path class="cls-2" d="M793.16,297.6c-3,0-4.54-2.2-4.54-6.71a19.18,19.18,0,0,1,.11-2.45,26.21,26.21,0,0,1,.22-2.8c.33-2.08.67-5.13.89-9s.44-8.42.55-13.31.22-9.88.22-14.77c0-5.49-.11-10.62-.44-15.5a61.83,61.83,0,0,0-1.55-11.36,9.22,9.22,0,0,0,3.66-2.07,10.58,10.58,0,0,1,4.32-2.2,3.81,3.81,0,0,1,1.33-.24c1.88,0,3.1,1.1,3.66,3.41a35.57,35.57,0,0,1,.77,8.31c0,2.19,0,4.88-.11,7.93s-.22,5.74-.44,7.94a68.53,68.53,0,0,1,4-10.38c1.44-2.93,3-5.74,4.65-8.55a38.85,38.85,0,0,1,7.32-9.4c2.55-2.19,4.88-3.41,7.21-3.41,2.66,0,4.43.85,5.32,2.68a15.36,15.36,0,0,1,1.22,6.72c0,1.71-.12,3.54-.23,5.49s-.33,3.78-.44,5.74l-1,16.72,1.67-5.61a66.48,66.48,0,0,1,4-10.38c1.44-2.93,3-5.74,4.65-8.55a38.85,38.85,0,0,1,7.32-9.4c2.55-2.19,4.87-3.41,7.2-3.41,3.11,0,5.21,1.09,6.1,3.41a23.84,23.84,0,0,1,1.33,8.55c0,1.34,0,2.81-.11,4.27s-.11,2.93-.22,4.4c-.11,1.71-.34,5.25-.67,10.62s-.66,11-.89,17.09c0,.49,0,1.47-.11,3.05s-.11,3.18-.11,5a83.19,83.19,0,0,0,.45,9,37.88,37.88,0,0,0,1.66,8.18c.89,2.2,2,3.42,3.66,3.42,2.1,0,3.88-1.1,5.43-3.42a37.81,37.81,0,0,0,3.66-7.81,57.69,57.69,0,0,0,1.88-6.72c.44-1.46,1-2.19,1.66-2.19s1,.73,1,2.19v.37a15.62,15.62,0,0,1-.44,3.42c-.34,1.34-.67,2.81-1.11,4.15a37,37,0,0,1-5.77,12.09c-2.43,3.41-6.09,5.12-10.75,5.12-3.77,0-6.65-1.34-8.53-4a21.84,21.84,0,0,1-3.66-9.64,60.75,60.75,0,0,1-.89-10.74V269.4c.22-5.5.45-10.26.56-14.29s.22-8.18.33-12.45a16.5,16.5,0,0,1,.11-2.2,25,25,0,0,0,.11-3.05,49.45,49.45,0,0,0-.55-7c-.34-2.19-1.11-3.41-2.33-3.41-.89,0-2.33,1.34-4.32,4.15a59.7,59.7,0,0,0-5.44,11.47,97.79,97.79,0,0,0-4.65,16.73,100.93,100.93,0,0,0-1.89,19.53c0,2.32.12,4.76.23,7.08s.44,4.64.88,7.08a13.34,13.34,0,0,1-1.22.61,6,6,0,0,1-2.21.37,7.43,7.43,0,0,1-3.88-1.34q-2-1.29-3.33-5.5a35.73,35.73,0,0,1-1.55-7.93,74.9,74.9,0,0,1-.44-8.67c0-4.4.22-8.79.55-13.31s.67-8.91.89-13.31V241c0-1.58-.11-3.42-.22-5.49A25.4,25.4,0,0,0,819,230c-.55-1.59-1.22-2.32-2.22-2.32-1.22,0-2.66,1.22-4.21,3.54a61.08,61.08,0,0,0-5.87,12.08,133,133,0,0,0-5.1,18,105.9,105.9,0,0,0-2,20.75,85.25,85.25,0,0,0,1,12.94,26.14,26.14,0,0,1-3.77,1.84A8.7,8.7,0,0,1,793.16,297.6Z"/></svg>