<svg id="Layer_1" data-name="Layer 1" xmlns="http://www.w3.org/2000/svg" viewBox="0 0 930 487"><defs><style>.cls-1{fill:#dfffdf;}.cls-2{fill:#d1818e;}</style></defs><rect class="cls-1" width="930" height="487"/><path class="cls-2" d="M120,308.5q-3.14,0-6-.31t-5.42-.76q-14.67-3.19-21-9.71T81.34,283.4a26.31,26.31,0,0,1,4.51-13.85,49.54,49.54,0,0,1,11.93-12.7,62.06,62.06,0,0,1,17.32-9.19c6.52-2.29,77.86-24.7,85.21-24.6,2,0,4.19-.5,6.76-.08a15.38,15.38,0,0,1,5,1.33c.73.47.21,1.11.2,1.88,0,1.07.12,1.57-1.35,1.55l-1.1,0a23.06,23.06,0,0,1-3.86-.39,23,23,0,0,0-4-.4c-5.88-.08-75.83,23-81.13,25a53,53,0,0,0-14.08,8.09,41.44,41.44,0,0,0-9.71,11,23.78,23.78,0,0,0-3.65,11.79,16.47,16.47,0,0,0,4.54,11.55q4.62,5.11,15.26,7.32c1.34.17,2.75.39,4.22.64a27.54,27.54,0,0,0,4.22.4,46.45,46.45,0,0,0,19.36-3.88,59.9,59.9,0,0,0,16.6-10.69,55.8,55.8,0,0,0,11.69-14.66A33.5,33.5,0,0,0,173.62,258a22.19,22.19,0,0,0-2.35-10.37,22.66,22.66,0,0,0-8.06-8.61,80.45,80.45,0,0,0-14.16-7.2q-7.59-3-15.28-5.83a139.74,139.74,0,0,1-14.63-6.4,44.66,44.66,0,0,1-12.2-9.13,23.56,23.56,0,0,1-5.49-9,32,32,0,0,1-1.6-10.59,38.37,38.37,0,0,1,2.56-13.18,48.1,48.1,0,0,1,6.6-12A56.13,56.13,0,0,1,124.26,152a71.69,71.69,0,0,1,18.31-7.91,66.63,66.63,0,0,1,18.61-2.5h.73q17.47.23,25.38,7.12t7.79,15.61a23.51,23.51,0,0,1-5,13.6A36.63,36.63,0,0,1,176.55,189q-8.7,4.36-20.65,4.2h-.74a2.32,2.32,0,0,1-1.91-1.29,4.21,4.21,0,0,1-.8-2.19c0-.76.32-1.14.94-1.13a28.25,28.25,0,0,0,15.41-4.39,39,39,0,0,0,11.92-11.22q4.59-6.7,4.67-12.92a12.34,12.34,0,0,0-4.2-9.36q-4.26-4.08-14.56-4.22h-.55a47.62,47.62,0,0,0-18,3.43,70.81,70.81,0,0,0-16.95,9.42,55.48,55.48,0,0,0-12.67,13,26.26,26.26,0,0,0-5,14.53,19,19,0,0,0,1.91,8.53,21.38,21.38,0,0,0,6.52,7.67,49.84,49.84,0,0,0,14.33,7.77q8.5,3.1,17.75,6.33a110.25,110.25,0,0,1,17.28,7.7,38.65,38.65,0,0,1,13,11.55q4.95,7.08,4.81,18.11c0,1.53-.1,3.14-.24,4.82a36.7,36.7,0,0,1-.81,5A45.62,45.62,0,0,1,178.23,285,56.7,56.7,0,0,1,161,298.71a85.69,85.69,0,0,1-20.79,7.54A88.32,88.32,0,0,1,120,308.5Z"/><path class="cls-2" d="M207.68,289.58a8.15,8.15,0,0,1-6-2.77q-2.66-2.76-3.86-8.44a39.13,39.13,0,0,1-.84-6.6q-.22-4-.23-8.45,0-6.75.53-14t1.44-13.28a48.19,48.19,0,0,1,2.13-9.29,7.28,7.28,0,0,1,2.81-3.22,9.47,9.47,0,0,1,5.39-1.38,17.42,17.42,0,0,1,4.55.61c-.3,1.13-.89,3.79-1.75,8s-1.59,8.86-2.2,14q-.6,5.38-1.06,11c-.3,3.74-.46,7.24-.46,10.52a43.84,43.84,0,0,0,1.07,10.52c.7,2.81,1.87,4.22,3.49,4.22,1.92,0,3.62-1.15,5.08-3.46a37.06,37.06,0,0,0,3.87-8.67,76.45,76.45,0,0,0,2.58-10.44q1.36-7.68,2.43-16.5t2.43-15.13a5.45,5.45,0,0,1,2.66-3.22,10.23,10.23,0,0,1,5.54-1.38,17.42,17.42,0,0,1,4.55.61,63.21,63.21,0,0,0-2.35,10.13q-1.14,6.77-1.9,14.9t-.76,16.12q0,4,.38,8.75a29.34,29.34,0,0,0,1.67,8.13c.86,2.26,2.1,3.38,3.72,3.38h.15A4.29,4.29,0,0,0,245.4,283a14.93,14.93,0,0,0,3.11-4.6,26.77,26.77,0,0,0,2.12-5.07c.61-1.94,1.26-4,2-6.29.41-.92.81-1.38,1.22-1.38s.76.61.76,1.84v.61a35.14,35.14,0,0,1-2.13,9.06,26.64,26.64,0,0,1-5.08,8.75,10.1,10.1,0,0,1-7.82,3.69,10,10,0,0,1-8.19-3.77A23.52,23.52,0,0,1,227,276.6a57.2,57.2,0,0,1-1.66-10.51q-1.06,4-2.43,8a32.52,32.52,0,0,1-3.34,7.06Q214.06,289.58,207.68,289.58Z"/><path class="cls-2" d="M265.35,345.46c-5.56,0-9.54-1.41-11.91-4.22a15.74,15.74,0,0,1-3.57-10.52,33.54,33.54,0,0,1,1.67-10.05,73.07,73.07,0,0,1,4.25-10.52,50.15,50.15,0,0,1,9.26-12.74A103.28,103.28,0,0,1,276.89,287q6.06-4.53,10.47-7.29v-1.07c0-1.85-.08-4.35-.23-7.53s-.33-6.5-.53-10-.41-6.55-.61-9.21c-.2.72-.4,1.41-.61,2.07s-.4,1.31-.6,1.92q-1.36,5.22-3.19,11.21a81.25,81.25,0,0,1-4.25,11.13,32.23,32.23,0,0,1-5.54,8.45,9.34,9.34,0,0,1-6.9,3.3,8.56,8.56,0,0,1-6.38-2.46,15.4,15.4,0,0,1-3.64-6.22,39.46,39.46,0,0,1-1.67-7.75,65.21,65.21,0,0,1-.46-7.22,94.56,94.56,0,0,1,2.81-23.33q2.81-11.06,9.79-17.66a18.65,18.65,0,0,1,6.3-4.14A17.42,17.42,0,0,1,277.8,220a14.33,14.33,0,0,1,6.45,1.46,13.68,13.68,0,0,1,4.78,3.76,7.71,7.71,0,0,1,4.1-2.69,17.85,17.85,0,0,1,4.09-.54h1.83c1.51,0,2.27.31,2.27.92,0,.21-.2.52-.61.93q-1.51,1.38-2.35,5.37a64.73,64.73,0,0,0-1.14,9.44c-.2,3.63-.3,7.4-.3,11.29q0,6.6.15,12.66c.1,4.05.15,7.19.15,9.44v1.69c2.84-1.74,5.37-3.14,7.59-4.22a13.25,13.25,0,0,1,5-1.61,1,1,0,0,1,.46.08.66.66,0,0,0,.3.07,1,1,0,0,1,.76,1.08,2.32,2.32,0,0,1-.3,1.15,1,1,0,0,1-.92.54,13.31,13.31,0,0,0-4.93,1.91,35.53,35.53,0,0,0-5.69,4c-1.72,1.48-2.58,2.79-2.58,3.91v2.46q0,21.18-4.33,35T281.06,338.7Q273.85,345.47,265.35,345.46Zm-1.67-3.23q7.44,0,12.45-7.21t7.81-20.34a189.28,189.28,0,0,0,3.57-31.09,56.28,56.28,0,0,0-7.44,5.68,93.34,93.34,0,0,0-10.39,10.67,60.31,60.31,0,0,0-9,14.51,53.22,53.22,0,0,0-3,8.67,31.84,31.84,0,0,0-1.06,7.75,15.73,15.73,0,0,0,1.9,8.22A5.82,5.82,0,0,0,263.68,342.23Zm5.16-64.63h.46q2.88,0,5.23-3.84a44.78,44.78,0,0,0,4.25-9.75q1.91-5.91,3.34-12.28t2.35-11.51q.91-5.15,1.37-7.45a16.75,16.75,0,0,1,2.12-6.14,5.61,5.61,0,0,0-4.7-2.15,11.33,11.33,0,0,0-7.82,2.92,23.21,23.21,0,0,0-5.46,7.67,54.82,54.82,0,0,0-3.49,10.06,91.94,91.94,0,0,0-1.9,10.13,67.66,67.66,0,0,0-.6,8.06c0,.72,0,1.85.07,3.38a34.05,34.05,0,0,0,.53,4.84,13.51,13.51,0,0,0,1.45,4.29A3.06,3.06,0,0,0,268.84,277.6Z"/><path class="cls-2" d="M354.14,289.73a10.07,10.07,0,0,1-7.59-3,20.23,20.23,0,0,1-4.48-7.68,47.94,47.94,0,0,1-2.2-9.52,68.31,68.31,0,0,1-.61-8.52,98.31,98.31,0,0,1-4.63,13.51,47.32,47.32,0,0,1-6.14,10.82q-3.35,4.23-7.29,4.23h-.15a7.22,7.22,0,0,1-6.07-3.46,24.84,24.84,0,0,1-3.64-9.13,58.73,58.73,0,0,1-1.22-12.29v-1.53a98.26,98.26,0,0,1,1.06-13.59,60.82,60.82,0,0,1,3.8-14.2,30.11,30.11,0,0,1,7.51-11.13,17.39,17.39,0,0,1,12.22-4.38,10.64,10.64,0,0,1,5.24,1.31,7.75,7.75,0,0,1,3.41,3.76,7.79,7.79,0,0,1,2.88-2,11.39,11.39,0,0,1,4.41-.76,15.68,15.68,0,0,1,2,.15,22.24,22.24,0,0,1,2.36.46q-.92,3.54-2.13,9.67t-2.05,13.44a124,124,0,0,0-.83,14.2v.61q0,2.93.3,6.91a67,67,0,0,0,1.06,7.83,24.14,24.14,0,0,0,2.13,6.45q1.37,2.61,3.49,2.61h.15a4.29,4.29,0,0,0,2.66-1.23,15.05,15.05,0,0,0,3.11-4.6,63.2,63.2,0,0,0,4.25-11.52c.2-.92.6-1.38,1.21-1.38s.76.61.76,1.84v.62a35,35,0,0,1-2.12,9.05A26.55,26.55,0,0,1,362,286,10.08,10.08,0,0,1,354.14,289.73ZM326.36,277q2.43,0,4.48-3.54a45.64,45.64,0,0,0,3.72-8.59q1.67-5.07,2.88-9.83a85.71,85.71,0,0,0,2.43-14.35,76.3,76.3,0,0,1,2.58-14.36,5.44,5.44,0,0,0-4.1-2c-2.23,0-4.5,1.12-6.83,3.37a25.32,25.32,0,0,0-5.46,7.68A49.16,49.16,0,0,0,322.49,248a88.64,88.64,0,0,0-1.14,13.82c0,1.12,0,2.25.08,3.38s.13,2.2.23,3.22q.3,4.61,1.74,6.6C324.36,276.32,325.35,277,326.36,277Z"/><path class="cls-2" d="M395.42,289.73a10,10,0,0,1-7.9-3.3,18.86,18.86,0,0,1-4-8.6,54.3,54.3,0,0,1-1.14-11.44,99.15,99.15,0,0,1,.84-13Q384,247,385,242.14t1.44-6.76a20.42,20.42,0,0,1-6.68-1.38,15.11,15.11,0,0,1-4.09-2.61q-.62,7.37-1.9,15.81t-3,16.2a107.71,107.71,0,0,1-3.64,13.28c-.41,1.33-1.07,2-2,2-.72,0-1.07-.46-1.07-1.39a6.12,6.12,0,0,1,.31-1.68,120.27,120.27,0,0,0,4.09-15.43q1.68-8.37,2.58-16.2a115.89,115.89,0,0,0,.91-13v-1.69a11.27,11.27,0,0,1-5.54-4.91,13,13,0,0,1-1.74-6.14,8.6,8.6,0,0,1,.83-3.84,2.67,2.67,0,0,1,2.51-1.69h.3c1.42,0,2.68,1,3.8,3a32.62,32.62,0,0,1,2.73,6.6A22,22,0,0,1,376,228a11.85,11.85,0,0,0,4,2,14.26,14.26,0,0,0,3.72.61,3.8,3.8,0,0,0,2.58-.61,37.07,37.07,0,0,0,3-3.53q1.74-2.31,5.54-2.31a16.66,16.66,0,0,1,6.22,1.54,67.83,67.83,0,0,0-3.34,8.67,98.19,98.19,0,0,0-2.58,10.21c-.1.82-.35,2.46-.76,4.92s-.76,5.27-1.06,8.44-.45,6.35-.45,9.52a44.33,44.33,0,0,0,1.44,11.9c1,3.43,2.75,5.14,5.39,5.14a5.59,5.59,0,0,0,4.25-2,19.1,19.1,0,0,0,3.18-5,53.78,53.78,0,0,0,2.28-5.83c.61-1.89,1.06-3.4,1.37-4.53.2-.92.6-1.38,1.21-1.38s.76.56.76,1.69v.77a25.63,25.63,0,0,1-2.51,11.89,17.58,17.58,0,0,1-6.45,7.22A15.86,15.86,0,0,1,395.42,289.73Z"/><path class="cls-2" d="M473.25,303.45a31.65,31.65,0,0,1-11.51-1.91,12.49,12.49,0,0,1-6.91-5.72,39.63,39.63,0,0,1-4.41,2,15.87,15.87,0,0,1-6,1.21,8.47,8.47,0,0,1-5-1.41q-4.8-3.4-6.6-11.64a134.07,134.07,0,0,1-2.61-18.06c-.13-2.14-.23-4.32-.3-6.52s-.1-4.45-.1-6.73q0-11.64,1.1-23.88t2.81-23.29q1.69-11,3.7-19.57A121.52,121.52,0,0,1,441,175a4.37,4.37,0,0,1,2.41-1.11,19.17,19.17,0,0,1,4.6-.5,21.06,21.06,0,0,1,5.41.7,5.87,5.87,0,0,1,3.8,2.91q-.6,2.82-2.8,10.74T449.72,207q-2.5,11.34-4.6,24.69a212.67,212.67,0,0,0-2.5,27v5q0,6.82.7,13.95a45.82,45.82,0,0,0,2.6,12.05c1.27,3.28,3,5,5.3,5.12h.4a8.9,8.9,0,0,0,1.31-.11,12.41,12.41,0,0,0,1.5-.3,11.06,11.06,0,0,1-.4-2.61q0-5.82,6-13t16.72-13.45a70.31,70.31,0,0,1,24.33-8.43,3.57,3.57,0,0,1,1.1-.2h.7c1.46,0,2.2.33,2.2,1s-1,1.41-3,1.81a51.64,51.64,0,0,0-14.62,4.61,73.48,73.48,0,0,0-12.61,7.73,49.94,49.94,0,0,0-8.91,8.53q-3.3,4.22-3.3,7a3.53,3.53,0,0,0,2.2,3.31,13,13,0,0,0,5.8,1.1,44,44,0,0,0,12.62-2.2,62.2,62.2,0,0,0,14.11-6.43,40.13,40.13,0,0,0,11.41-10.23,21.89,21.89,0,0,0,4.51-13.45A19.77,19.77,0,0,0,509.58,248q-3.7-5.32-12.31-8.63t-23-3.32a52.69,52.69,0,0,0-7.81.61,27.86,27.86,0,0,0-7.81,2.4,6.15,6.15,0,0,0-1.1.1,4.49,4.49,0,0,1-.9.11q-3.81,0-5.41-1.91a6.26,6.26,0,0,1-1.6-4.12,6.63,6.63,0,0,1,1.2-3.91,3.3,3.3,0,0,1,2.61-1.71,97.4,97.4,0,0,0,18-2.4,71.2,71.2,0,0,0,17-6.43,103,103,0,0,0,13.12-8.23,53,53,0,0,0,11.81-11.74,24.75,24.75,0,0,0,4.9-15,12.28,12.28,0,0,0-3.7-9.34,25.72,25.72,0,0,0-9.81-5.52,61.75,61.75,0,0,0-13.31-2.7q-7.22-.7-14.22-.71-6.81,0-12.71.4t-9.31.81q-4.8.41-13.62,2T422.69,173a132.72,132.72,0,0,0-19.22,6.52,61.17,61.17,0,0,0-15,8.83q-5.91,4.92-5.91,11.14a9.72,9.72,0,0,0,4.11,8.13,16.85,16.85,0,0,0,10.51,3.11,38.92,38.92,0,0,0,14.91-3.51A59.07,59.07,0,0,0,429,195.66c.27-.27.47-.4.6-.4s.4.27.4.8a9.32,9.32,0,0,1-.8,3.21,10.46,10.46,0,0,1-2.8,3.82,46.22,46.22,0,0,1-15.62,9.53,48.67,48.67,0,0,1-16.62,3.11c-1.33,0-2.67-.07-4-.2a30.82,30.82,0,0,1-3.8-.6,18.86,18.86,0,0,1-10.71-6.42,17,17,0,0,1-3.91-11,22.37,22.37,0,0,1,5.81-15.36A48.69,48.69,0,0,1,392.86,171a115.63,115.63,0,0,1,20.83-7.63q11.3-3,22.32-4.81,5-.81,11.81-1.31t14.42-.5a182.75,182.75,0,0,1,22.42,1.41A96.29,96.29,0,0,1,505.78,163a39.86,39.86,0,0,1,15.62,9.74,21.87,21.87,0,0,1,5.9,15.65A28.1,28.1,0,0,1,522.7,204a51.85,51.85,0,0,1-12,12.84,94.44,94.44,0,0,1-31,15.76,91.33,91.33,0,0,1,20.73,3.52,35.73,35.73,0,0,1,16.21,9.53q6.31,6.62,6.31,18.46a30.67,30.67,0,0,1-4.81,17.07,41.26,41.26,0,0,1-12.41,12.34,61.52,61.52,0,0,1-16.22,7.43A58.13,58.13,0,0,1,473.25,303.45Z"/><path class="cls-2" d="M543.09,293.8a11.06,11.06,0,0,1-8.65-3.53,22.1,22.1,0,0,1-4.71-8.53,42.24,42.24,0,0,1-1.82-9.28q-.3-4.15-.46-8.83t-.15-9.9q0-9.53.53-19.66t1.67-19.72q1.14-9.6,2.81-17.12a62.44,62.44,0,0,1,2.89-8.75,28.78,28.78,0,0,1,5.16-8.52,9.78,9.78,0,0,1,7.58-3.61q9,0,9,13.66a97.94,97.94,0,0,1-1.75,15.43,131.07,131.07,0,0,1-6.3,22.49,132.17,132.17,0,0,1-5.38,13q-3.12,6.53-6.15,11.9a20.85,20.85,0,0,0-.15,2.53v2.53c0,3.48.12,7,.38,10.6a69,69,0,0,0,1.36,9.9,21.72,21.72,0,0,0,2.81,7.29,5.46,5.46,0,0,0,4.71,2.76,6.32,6.32,0,0,0,5.38-2.84,26.4,26.4,0,0,0,3.12-5.45,29.83,29.83,0,0,0,1.13-3.07l1.14-3.53c.41-1.12,1-1.69,1.67-1.69.51,0,.76.57.76,1.69v.31a13.26,13.26,0,0,1-.38,2.76,27,27,0,0,1-1,3.38,27.65,27.65,0,0,1-5.31,9.75Q549.45,293.79,543.09,293.8Zm-5.62-47.6a186.25,186.25,0,0,0,7.29-17.27,153.27,153.27,0,0,0,5.39-18,72.79,72.79,0,0,0,2-16.12,32.88,32.88,0,0,0-.68-7.37c-.45-1.94-1.29-2.91-2.5-2.91s-2.15,1.15-3.11,3.45a52.47,52.47,0,0,0-2.66,9.14q-1.22,5.67-2.2,12.2t-1.67,12.9q-.69,6.38-1.06,11.2t-.53,7c0,.61,0,1.41-.08,2.38S537.57,244.87,537.47,246.2Z"/><path class="cls-2" d="M575,294.72a12.58,12.58,0,0,1-8.42-2.76,17.7,17.7,0,0,1-5-7.22A40.48,40.48,0,0,1,559.1,275a80.18,80.18,0,0,1-.68-10.36q0-3.84.3-7.14t.45-5.76a51.77,51.77,0,0,1,3.34-13,27.72,27.72,0,0,1,7.59-10.9q5-4.38,13.21-4.38,5.61,0,8.72,3.69a21.81,21.81,0,0,1,4.4,9.59,57.82,57.82,0,0,1,1.29,12.36,92.66,92.66,0,0,1-.83,12.51,71.67,71.67,0,0,1-1.9,9.75,51.17,51.17,0,0,1-3.94,10.21,33.49,33.49,0,0,1-6.76,9.29A13.1,13.1,0,0,1,575,294.72Zm5-8.45a6.45,6.45,0,0,0,5.38-3.07,30.6,30.6,0,0,0,3.72-7.06,50.85,50.85,0,0,0,2.13-6.75,46.37,46.37,0,0,0,1-6.14,74.75,74.75,0,0,0,.38-7.84,56,56,0,0,0-1.36-12.35q-1.37-6.08-5-8.52a3.52,3.52,0,0,1-1.82-2.92,3.47,3.47,0,0,1,.91-2.3,10.5,10.5,0,0,1,1.52-1.54,5.15,5.15,0,0,0-2.89-1.08q-2.73,0-4.85,3.08a28.89,28.89,0,0,0-3.57,7.37,76,76,0,0,0-2.28,8.21q-.83,3.91-1,5.45c-.11,1.13-.26,2.84-.46,5.14s-.3,4.84-.3,7.6a81.33,81.33,0,0,0,.68,10.44,26.81,26.81,0,0,0,2.5,8.75A5.74,5.74,0,0,0,580,286.27Z"/><path class="cls-2" d="M617.45,294.87a19.25,19.25,0,0,1-11.46-3.3q-4.62-3.3-4.63-11.74c0-.21,0-.7.08-1.46s.13-1.56.23-2.38a9.75,9.75,0,0,1-.91-4.61,8,8,0,0,1,.6-3.22,2,2,0,0,1,1.83-1.38h.15c.3,0,.7.36,1.21,1.07q2-5.67,3.64-11.74c1.12-4.05,2.13-7.65,3-10.83q1.51-5.52,3.87-11.9a19.26,19.26,0,0,1,7.51-9.75,15.21,15.21,0,0,1,8.5-2.61,4.91,4.91,0,0,1,.76.08,4.91,4.91,0,0,0,.76.08c.81.1,1.21.46,1.21,1.07a.94.94,0,0,1-1.06,1.08c-1.11.1-1.92,1-2.43,2.68a20.29,20.29,0,0,0-.76,5.76v1.69a8.09,8.09,0,0,0,.16,1.69,52.51,52.51,0,0,0,2.73,11.13q2.12,6.08,4,12.13a38.07,38.07,0,0,1,1.9,11.28v.77c0,1.33-.08,2.76-.23,4.3a18.53,18.53,0,0,1-1,4.45,35.9,35.9,0,0,0,4.18-.54,22.44,22.44,0,0,0,3.71-1,11.67,11.67,0,0,0,3.42-2.15,12.84,12.84,0,0,0,2.2-2.77.91.91,0,0,1,.76-.46c.81,0,1.21.52,1.21,1.54a2.46,2.46,0,0,1-.3,1.07,12.55,12.55,0,0,1-6.07,5.53A26.65,26.65,0,0,1,636,282.9a21.64,21.64,0,0,1-6.6,8.44Q624.89,294.87,617.45,294.87Zm-4.1-5.07H614a13.72,13.72,0,0,0,5.46-1.91,9.12,9.12,0,0,0,4-5,.32.32,0,0,1,.08-.23.32.32,0,0,0,.07-.23A92.59,92.59,0,0,1,613,281a31.89,31.89,0,0,1-8-2.54,5.84,5.84,0,0,1-.08.93,4.91,4.91,0,0,0-.08.76q0,4.61,2.36,7.14A8,8,0,0,0,613.35,289.8Zm11.39-12.28c.2-1.12.35-2.3.45-3.53s.15-2.45.15-3.68c0-1.94-.1-3.92-.3-5.91s-.45-4-.76-5.91q-1.06-7.22-2.5-13.21a45.88,45.88,0,0,1-1.44-10.74,20.4,20.4,0,0,1,.45-4.46c-.51,0-1.06.77-1.67,2.31s-1.21,3.27-1.82,5.22-1.11,3.68-1.52,5.22q-1.81,6.6-3.94,13.58t-4.56,13.74a37.52,37.52,0,0,0,3.87,2.15c1.47.72,2.91,1.38,4.33,2s2.75,1.2,4.32,1.76A43.06,43.06,0,0,0,624.74,277.52Z"/><path class="cls-2" d="M665.26,294.87a19.25,19.25,0,0,1-11.46-3.3q-4.63-3.3-4.63-11.74c0-.21,0-.7.08-1.46s.12-1.56.22-2.38a9.87,9.87,0,0,1-.91-4.61,8,8,0,0,1,.61-3.22,2,2,0,0,1,1.82-1.38h.15c.31,0,.71.36,1.22,1.07q2-5.67,3.64-11.74c1.11-4.05,2.13-7.65,3-10.83q1.51-5.52,3.87-11.9a19.21,19.21,0,0,1,7.51-9.75,15.19,15.19,0,0,1,8.5-2.61,5,5,0,0,1,.76.08,4.8,4.8,0,0,0,.76.08c.81.1,1.21.46,1.21,1.07a1,1,0,0,1-1.06,1.08c-1.12.1-1.93,1-2.43,2.68a19.94,19.94,0,0,0-.76,5.76v1.69a8.85,8.85,0,0,0,.15,1.69,53.76,53.76,0,0,0,2.73,11.13q2.13,6.08,4,12.13a38,38,0,0,1,1.89,11.28v.77c0,1.33-.07,2.76-.22,4.3a19.54,19.54,0,0,1-1,4.45,35.73,35.73,0,0,0,4.17-.54,22.31,22.31,0,0,0,3.72-1,11.67,11.67,0,0,0,3.42-2.15,12.84,12.84,0,0,0,2.2-2.77.89.89,0,0,1,.75-.46c.81,0,1.22.52,1.22,1.54a2.46,2.46,0,0,1-.3,1.07,12.55,12.55,0,0,1-6.07,5.53,26.66,26.66,0,0,1-10.33,2.46,21.46,21.46,0,0,1-6.6,8.44Q672.7,294.87,665.26,294.87Zm-4.1-5.07h.61a13.72,13.72,0,0,0,5.46-1.91,9.17,9.17,0,0,0,3.95-5,.32.32,0,0,1,.07-.23.32.32,0,0,0,.08-.23A92.28,92.28,0,0,1,660.78,281a32,32,0,0,1-8-2.54,5.82,5.82,0,0,1-.07.93,4.91,4.91,0,0,0-.08.76q0,4.61,2.35,7.14A8,8,0,0,0,661.16,289.8Zm11.38-12.28A34.27,34.27,0,0,0,673,274c.1-1.23.15-2.45.15-3.68,0-1.94-.1-3.92-.3-5.91s-.46-4-.76-5.91q-1.07-7.22-2.51-13.21a46.42,46.42,0,0,1-1.44-10.74,19.78,19.78,0,0,1,.46-4.46c-.51,0-1.06.77-1.67,2.31s-1.22,3.27-1.82,5.22-1.12,3.68-1.52,5.22q-1.82,6.6-4,13.58t-4.55,13.74A35.53,35.53,0,0,0,659,272.3c1.47.72,2.91,1.38,4.33,2s2.75,1.2,4.32,1.76A42.89,42.89,0,0,0,672.54,277.52Z"/><path class="cls-2" d="M715.19,294.72a12.58,12.58,0,0,1-8.42-2.76,17.7,17.7,0,0,1-5-7.22,41,41,0,0,1-2.43-9.75c-.46-3.53-11.55-11.82-11.55-15.2,0-2.56,11-.1,11.17-2.3s.35-4.12.46-5.76a50.93,50.93,0,0,1,3.34-13,27.6,27.6,0,0,1,7.58-10.9q5-4.38,13.21-4.38,5.61,0,8.72,3.69a21.82,21.82,0,0,1,4.41,9.59A58.46,58.46,0,0,1,738,249.12a91,91,0,0,1-.84,12.51,71.67,71.67,0,0,1-1.9,9.75,51.17,51.17,0,0,1-3.94,10.21,33.29,33.29,0,0,1-6.76,9.29A13.1,13.1,0,0,1,715.19,294.72Zm5-8.45a6.48,6.48,0,0,0,5.39-3.07,31.39,31.39,0,0,0,3.72-7.06,52.12,52.12,0,0,0,2.12-6.75,47.89,47.89,0,0,0,1-6.14,77.57,77.57,0,0,0,.38-7.84,56.05,56.05,0,0,0-1.37-12.35q-1.36-6.08-5-8.52a3.52,3.52,0,0,1-1.82-2.92,3.47,3.47,0,0,1,.91-2.3,10.5,10.5,0,0,1,1.52-1.54,5.12,5.12,0,0,0-2.88-1.08q-2.74,0-4.86,3.08a28.89,28.89,0,0,0-3.57,7.37,76,76,0,0,0-2.28,8.21q-.83,3.91-1,5.45c-.1,1.13-.26,2.84-.46,5.14s-.3,4.84-.3,7.6a81.33,81.33,0,0,0,.68,10.44,26.56,26.56,0,0,0,2.51,8.75A5.72,5.72,0,0,0,720.2,286.27Z"/><path class="cls-2" d="M751.31,294.41q-4.09,0-4.1-5.53c0-.61,0-1.27.08-2s.12-1.48.22-2.3a70.51,70.51,0,0,0,.76-7.45c.2-3.22.38-6.86.53-10.9s.23-8.06.23-12.05q0-6.76-.38-12.67a40.85,40.85,0,0,0-1.44-9.29,8.35,8.35,0,0,0,3.34-1.69,10,10,0,0,1,4-1.84,3.93,3.93,0,0,1,1.21-.15,3.15,3.15,0,0,1,3.26,2.76,28.4,28.4,0,0,1,.68,6.76c0,1.84,0,4-.07,6.52s-.18,4.68-.38,6.53a53.93,53.93,0,0,1,3.64-8.52c1.32-2.41,2.73-4.74,4.25-7a33.15,33.15,0,0,1,6.6-7.68q3.42-2.76,6.45-2.76,3.65,0,4.79,2.23a12,12,0,0,1,1.13,5.45c0,1.43-.07,2.94-.22,4.52s-.28,3.15-.38,4.69l-.91,13.66,1.51-4.6a53.91,53.91,0,0,1,3.65-8.52q2-3.61,4.25-7a32.68,32.68,0,0,1,6.6-7.68q3.41-2.76,6.45-2.76,4.25,0,5.46,2.84a17.79,17.79,0,0,1,1.22,7c0,1.12,0,2.28-.08,3.45s-.13,2.38-.23,3.61q-.15,2.15-.6,8.67t-.76,14c0,.41,0,1.23-.08,2.46s-.08,2.61-.08,4.14q0,3.54.38,7.45a23.51,23.51,0,0,0,1.52,6.68q1.14,2.76,3.26,2.76a5.79,5.79,0,0,0,4.86-2.84,27.68,27.68,0,0,0,3.26-6.37,49.19,49.19,0,0,0,1.75-5.53c.4-1.23.91-1.84,1.52-1.84s.91.61.91,1.84v.31a13.26,13.26,0,0,1-.38,2.76,27,27,0,0,1-1,3.38,30.84,30.84,0,0,1-5.16,9.9q-3.35,4.23-9.71,4.22c-3.44,0-6-1.09-7.67-3.3a18.37,18.37,0,0,1-3.34-7.9,49.74,49.74,0,0,1-.83-8.75v-2.77q.3-6.75.46-11.74t.3-10.21c0-.51,0-1.13.07-1.84s.08-1.54.08-2.46a35.31,35.31,0,0,0-.45-5.68c-.31-1.84-1-2.77-2.13-2.77-.81,0-2.12,1.13-4,3.38a48.33,48.33,0,0,0-4.93,9.37,78.54,78.54,0,0,0-4.17,13.66,74.51,74.51,0,0,0-1.67,16c0,1.94.08,3.86.23,5.76a46.86,46.86,0,0,0,.83,5.75,9.35,9.35,0,0,1-1.14.46,5.8,5.8,0,0,1-2,.31,7,7,0,0,1-3.5-1.07c-1.21-.72-2.22-2.2-3-4.46a29.5,29.5,0,0,1-1.44-6.52,63.59,63.59,0,0,1-.38-7.14c0-3.58.15-7.22.45-10.9s.56-7.32.76-10.9v-2.3q0-2-.15-4.53a16.08,16.08,0,0,0-.84-4.46c-.45-1.27-1.13-1.91-2-1.91-1.12,0-2.38,1-3.8,2.91a46.19,46.19,0,0,0-5.31,9.9,87.16,87.16,0,0,0-4.55,14.74,77.82,77.82,0,0,0-1.82,17,63,63,0,0,0,.91,10.59,22.59,22.59,0,0,1-3.42,1.54A10.07,10.07,0,0,1,751.31,294.41Z"/></svg>