<svg id="Layer_1" data-name="Layer 1" xmlns="http://www.w3.org/2000/svg" viewBox="0 0 930 487"><defs><style>.cls-1{fill:#fff;}.cls-2{fill:#e5818e;}</style></defs><rect class="cls-1" width="930" height="487"/><path class="cls-2" d="M120,308.5a57.36,57.36,0,0,1-6-.3,43.75,43.75,0,0,1-5.4-.8c-9.8-2.1-16.8-5.4-21-9.7s-6.3-9.1-6.2-14.3a26.83,26.83,0,0,1,4.5-13.8,48.88,48.88,0,0,1,11.9-12.7,63.43,63.43,0,0,1,17.3-9.2c6.5-2.3,77.9-24.7,85.2-24.6,2,0,4.2-.5,6.8-.1a16.39,16.39,0,0,1,4.9,1.3c.7.5.2,1.1.2,1.9,0,1.1.1,1.6-1.4,1.5h-1.1a18.44,18.44,0,0,1-3.9-.4,27.1,27.1,0,0,0-4-.4c-5.9-.1-75.8,23-81.1,25.1a54.09,54.09,0,0,0-14.1,8.1,41.54,41.54,0,0,0-9.7,11,23,23,0,0,0-3.6,11.8,16.41,16.41,0,0,0,4.5,11.5c3.1,3.4,8.2,5.9,15.3,7.3,1.3.2,2.8.4,4.2.6a32.92,32.92,0,0,0,4.2.4,46.43,46.43,0,0,0,19.4-3.9,59.05,59.05,0,0,0,16.6-10.7,55.73,55.73,0,0,0,11.7-14.7,32.45,32.45,0,0,0,4.4-15.6,23.25,23.25,0,0,0-2.3-10.4,22.66,22.66,0,0,0-8.1-8.6,82.21,82.21,0,0,0-14.2-7.2c-5.1-2-10.2-3.9-15.3-5.8a128.71,128.71,0,0,1-14.6-6.4,45.75,45.75,0,0,1-12.2-9.1,24.07,24.07,0,0,1-5.5-9,31.34,31.34,0,0,1-1.6-10.6,38.72,38.72,0,0,1,2.6-13.2,46.89,46.89,0,0,1,6.6-12,55.29,55.29,0,0,1,15.3-13.7,70.41,70.41,0,0,1,18.3-7.9,64.46,64.46,0,0,1,18.6-2.5h.7c11.6.2,20.1,2.5,25.4,7.1s7.9,9.8,7.8,15.6a23.55,23.55,0,0,1-5,13.6,36.1,36.1,0,0,1-13.6,11.1q-8.7,4.35-20.7,4.2h-.7a2.2,2.2,0,0,1-1.9-1.3,4.57,4.57,0,0,1-.8-2.2c0-.8.3-1.1.9-1.1a28,28,0,0,0,15.4-4.4,37.61,37.61,0,0,0,11.9-11.2c3.1-4.5,4.6-8.8,4.7-12.9a13,13,0,0,0-4.2-9.4c-2.8-2.7-7.7-4.1-14.6-4.2h-.6a48.59,48.59,0,0,0-18,3.4,71.63,71.63,0,0,0-16.9,9.4,57.7,57.7,0,0,0-12.7,13,26.17,26.17,0,0,0-5,14.5,19.51,19.51,0,0,0,1.9,8.5,22,22,0,0,0,6.5,7.7,52.48,52.48,0,0,0,14.3,7.8c5.7,2.1,11.6,4.2,17.8,6.3a104.35,104.35,0,0,1,17.3,7.7,38.17,38.17,0,0,1,13,11.5c3.3,4.7,4.9,10.8,4.8,18.1,0,1.5-.1,3.1-.2,4.8a27.45,27.45,0,0,1-.8,5,46.35,46.35,0,0,1-9.8,20.7,57.65,57.65,0,0,1-17.3,13.7,87.83,87.83,0,0,1-20.8,7.5A72.36,72.36,0,0,1,120,308.5Z"/><path class="cls-2" d="M207.7,289.6a8.07,8.07,0,0,1-6-2.8c-1.8-1.8-3.1-4.7-3.9-8.4a34.9,34.9,0,0,1-.8-6.6c-.2-2.7-.2-5.5-.2-8.4,0-4.5.2-9.2.5-14s.8-9.2,1.4-13.3a50.41,50.41,0,0,1,2.1-9.3,7,7,0,0,1,2.8-3.2,9.83,9.83,0,0,1,5.4-1.4,18.76,18.76,0,0,1,4.6.6c-.3,1.1-.9,3.8-1.7,8s-1.6,8.9-2.2,14c-.4,3.6-.8,7.2-1.1,11s-.5,7.2-.5,10.5a43.9,43.9,0,0,0,1.1,10.5c.7,2.8,1.9,4.2,3.5,4.2,1.9,0,3.6-1.2,5.1-3.5a35.37,35.37,0,0,0,3.9-8.7,83.19,83.19,0,0,0,2.6-10.4q1.35-7.65,2.4-16.5c.7-5.9,1.5-10.9,2.4-15.1a5.42,5.42,0,0,1,2.7-3.2,10.44,10.44,0,0,1,5.5-1.4,18.76,18.76,0,0,1,4.6.6,69,69,0,0,0-2.4,10.1c-.8,4.5-1.4,9.5-1.9,14.9s-.8,10.8-.8,16.1c0,2.7.1,5.6.4,8.8a28.79,28.79,0,0,0,1.7,8.1c.9,2.3,2.1,3.4,3.7,3.4h.2a4.53,4.53,0,0,0,2.7-1.2,14.4,14.4,0,0,0,3.1-4.6,24.5,24.5,0,0,0,2.1-5.1c.6-1.9,1.3-4,2-6.3.4-.9.8-1.4,1.2-1.4s.8.6.8,1.8v.6a35.55,35.55,0,0,1-2.1,9.1,26.43,26.43,0,0,1-5.1,8.8,10.41,10.41,0,0,1-16-.1,23.87,23.87,0,0,1-4.4-9.2,57.32,57.32,0,0,1-1.7-10.5c-.7,2.7-1.5,5.3-2.4,8a33.26,33.26,0,0,1-3.3,7.1Q214,289.6,207.7,289.6Z"/><path class="cls-2" d="M265.4,345.5c-5.6,0-9.5-1.4-11.9-4.2a15.57,15.57,0,0,1-3.6-10.5,34.47,34.47,0,0,1,1.7-10.1,66.35,66.35,0,0,1,4.3-10.5,47.15,47.15,0,0,1,9.3-12.7A112.7,112.7,0,0,1,277,287.1c4-3,7.5-5.5,10.5-7.3v-1.1c0-1.8-.1-4.3-.2-7.5s-.3-6.5-.5-10-.4-6.5-.6-9.2l-.6,2.1c-.2.7-.4,1.3-.6,1.9-.9,3.5-2,7.2-3.2,11.2a69.25,69.25,0,0,1-4.3,11.1,34,34,0,0,1-5.5,8.4,9.42,9.42,0,0,1-6.9,3.3,8.44,8.44,0,0,1-6.4-2.5,15.17,15.17,0,0,1-3.6-6.2,40.09,40.09,0,0,1-1.7-7.8,67.14,67.14,0,0,1-.5-7.2,92.41,92.41,0,0,1,2.8-23.3c1.9-7.4,5.1-13.3,9.8-17.7a18.43,18.43,0,0,1,6.3-4.1,17.81,17.81,0,0,1,6.1-1.2,14.43,14.43,0,0,1,6.5,1.5,13.09,13.09,0,0,1,4.8,3.8,8.2,8.2,0,0,1,4.1-2.7,15.77,15.77,0,0,1,4.1-.5h1.8c1.5,0,2.3.3,2.3.9q0,.3-.6.9-1.5,1.35-2.4,5.4a59.31,59.31,0,0,0-1.1,9.4c-.2,3.6-.3,7.4-.3,11.3,0,4.4.1,8.6.2,12.7s.2,7.2.2,9.4v1.7c2.8-1.7,5.4-3.1,7.6-4.2a12.54,12.54,0,0,1,5-1.6.75.75,0,0,1,.5.1.37.37,0,0,0,.3.1,1,1,0,0,1,.8,1.1,2.66,2.66,0,0,1-.3,1.2.87.87,0,0,1-.9.5,12.32,12.32,0,0,0-4.9,1.9,34.08,34.08,0,0,0-5.7,4c-1.7,1.5-2.6,2.8-2.6,3.9v2.5c0,14.1-1.4,25.8-4.3,35s-6.7,16.1-11.5,20.6C276.3,343.2,271,345.5,265.4,345.5Zm-1.7-3.3c5,0,9.1-2.4,12.4-7.2s5.9-11.6,7.8-20.3a185.14,185.14,0,0,0,3.6-31.1,51,51,0,0,0-7.4,5.7A97.35,97.35,0,0,0,269.7,300a59,59,0,0,0-9,14.5,56.27,56.27,0,0,0-3,8.7,32.5,32.5,0,0,0-1.1,7.8,15.32,15.32,0,0,0,1.9,8.2A5.8,5.8,0,0,0,263.7,342.2Zm5.1-64.6h.5c1.9,0,3.7-1.3,5.2-3.8a42.09,42.09,0,0,0,4.2-9.7,110.39,110.39,0,0,0,3.3-12.3c1-4.2,1.7-8.1,2.4-11.5s1.1-5.9,1.4-7.4a16.2,16.2,0,0,1,2.1-6.1,5.75,5.75,0,0,0-4.7-2.2,11.59,11.59,0,0,0-7.8,2.9,22.71,22.71,0,0,0-5.5,7.7,54.7,54.7,0,0,0-3.5,10.1,80.78,80.78,0,0,0-1.9,10.1,67.11,67.11,0,0,0-.6,8.1c0,.7,0,1.8.1,3.4a28,28,0,0,0,.5,4.8,15.51,15.51,0,0,0,1.4,4.3A3.62,3.62,0,0,0,268.8,277.6Z"/><path class="cls-2" d="M354.1,289.7a10.09,10.09,0,0,1-7.6-3A21.47,21.47,0,0,1,342,279a45.12,45.12,0,0,1-2.2-9.5,70.32,70.32,0,0,1-.6-8.5,107.33,107.33,0,0,1-4.6,13.5,48.85,48.85,0,0,1-6.1,10.8c-2.2,2.8-4.7,4.2-7.3,4.2H321a7.32,7.32,0,0,1-6.1-3.5,24.71,24.71,0,0,1-3.6-9.1,59.68,59.68,0,0,1-1.2-12.3v-1.5a99.11,99.11,0,0,1,1.1-13.6,60.65,60.65,0,0,1,3.8-14.2,29.46,29.46,0,0,1,7.5-11.1,17.57,17.57,0,0,1,12.2-4.4,10,10,0,0,1,5.2,1.3,7.42,7.42,0,0,1,3.4,3.8,7.87,7.87,0,0,1,2.9-2,11.52,11.52,0,0,1,4.4-.8,15,15,0,0,1,2,.2c.8.1,1.5.3,2.4.5-.6,2.4-1.3,5.6-2.1,9.7s-1.5,8.6-2.1,13.4a115.89,115.89,0,0,0-.8,14.2v.6q0,2.85.3,6.9a63.69,63.69,0,0,0,1.1,7.8,22.87,22.87,0,0,0,2.1,6.4c.9,1.7,2.1,2.6,3.5,2.6h.2a4.53,4.53,0,0,0,2.7-1.2,14.4,14.4,0,0,0,3.1-4.6,64.38,64.38,0,0,0,4.2-11.5c.2-.9.6-1.4,1.2-1.4s.8.6.8,1.8v.6a35.55,35.55,0,0,1-2.1,9.1A26.43,26.43,0,0,1,362,286,10.08,10.08,0,0,1,354.1,289.7ZM326.4,277c1.6,0,3.1-1.2,4.5-3.5a43.5,43.5,0,0,0,3.7-8.6c1.1-3.4,2.1-6.7,2.9-9.8a86.58,86.58,0,0,0,2.4-14.4,79.17,79.17,0,0,1,2.6-14.4,5.57,5.57,0,0,0-4.1-2c-2.2,0-4.5,1.1-6.8,3.4a27.81,27.81,0,0,0-5.5,7.7,52.15,52.15,0,0,0-3.6,12.6,83.52,83.52,0,0,0-1.1,13.8c0,1.1,0,2.3.1,3.4s.1,2.2.2,3.2c.2,3.1.8,5.3,1.7,6.6S325.3,277,326.4,277Z"/><path class="cls-2" d="M395.4,289.7a10,10,0,0,1-7.9-3.3,18.58,18.58,0,0,1-4-8.6,51.3,51.3,0,0,1-1.1-11.4,112,112,0,0,1,.8-13c.6-4.2,1.2-8,1.8-11.3s1.1-5.5,1.4-6.8a21.1,21.1,0,0,1-6.7-1.4,15.15,15.15,0,0,1-4.1-2.6c-.4,4.9-1,10.2-1.9,15.8s-1.8,11-3,16.2a107.67,107.67,0,0,1-3.6,13.3c-.4,1.3-1.1,2-2,2-.7,0-1.1-.5-1.1-1.4a2.49,2.49,0,0,1,.1-.8,2.92,2.92,0,0,1,.2-.9,122.89,122.89,0,0,0,4.1-15.4c1.1-5.6,2-11,2.6-16.2a118.14,118.14,0,0,0,.9-13.1v-1.7a11.08,11.08,0,0,1-5.5-4.9,12.29,12.29,0,0,1-1.7-6.1,9.21,9.21,0,0,1,.8-3.8,2.78,2.78,0,0,1,2.5-1.7h.3c1.4,0,2.7,1,3.8,3a32.57,32.57,0,0,1,2.7,6.6,22.07,22.07,0,0,1,1.1,5.8,12.52,12.52,0,0,0,4,2,14.75,14.75,0,0,0,3.7.6,3.93,3.93,0,0,0,2.6-.6,45.9,45.9,0,0,0,3-3.5,6.6,6.6,0,0,1,5.5-2.3,16.76,16.76,0,0,1,6.2,1.5,72.15,72.15,0,0,0-3.3,8.7,94.85,94.85,0,0,0-2.6,10.2c-.1.8-.4,2.5-.8,4.9s-.8,5.3-1.1,8.4-.5,6.3-.5,9.5a46.82,46.82,0,0,0,1.4,11.9q1.5,5.1,5.4,5.1a5.61,5.61,0,0,0,4.2-2,18.71,18.71,0,0,0,3.2-5,53.63,53.63,0,0,0,2.3-5.8c.6-1.9,1.1-3.4,1.4-4.5.2-.9.6-1.4,1.2-1.4s.8.6.8,1.7v.8a25.25,25.25,0,0,1-2.5,11.9,17.6,17.6,0,0,1-6.5,7.2A14.27,14.27,0,0,1,395.4,289.7Z"/><path class="cls-2" d="M473.2,303.4a31.16,31.16,0,0,1-11.5-1.9,12.51,12.51,0,0,1-6.9-5.7,41.5,41.5,0,0,1-4.4,2,16.05,16.05,0,0,1-6,1.2,8.68,8.68,0,0,1-5-1.4c-3.2-2.3-5.4-6.2-6.6-11.6a131.18,131.18,0,0,1-2.6-18.1c-.1-2.1-.2-4.3-.3-6.5s-.1-4.4-.1-6.7c0-7.8.4-15.7,1.1-23.9s1.7-15.9,2.8-23.3,2.4-13.9,3.7-19.6A104.34,104.34,0,0,1,441,175a4.41,4.41,0,0,1,2.4-1.1,20.89,20.89,0,0,1,4.6-.5,19,19,0,0,1,5.4.7,5.93,5.93,0,0,1,3.8,2.9c-.4,1.9-1.3,5.5-2.8,10.7s-3,11.7-4.7,19.3-3.2,15.8-4.6,24.7a220.26,220.26,0,0,0-2.5,27v5a133.91,133.91,0,0,0,.7,14,44.73,44.73,0,0,0,2.6,12c1.3,3.3,3,5,5.3,5.1h.4a6.15,6.15,0,0,0,1.3-.1l1.5-.3a9.68,9.68,0,0,1-.4-2.6c0-3.9,2-8.2,6-13s9.6-9.3,16.7-13.4A69.29,69.29,0,0,1,501,257a5.16,5.16,0,0,1,1.1-.2h.7c1.5,0,2.2.3,2.2,1s-1,1.4-3,1.8a50.65,50.65,0,0,0-14.6,4.6,76.77,76.77,0,0,0-12.6,7.7,52.31,52.31,0,0,0-8.9,8.5c-2.2,2.8-3.3,5.2-3.3,7a3.41,3.41,0,0,0,2.2,3.3,13.62,13.62,0,0,0,5.8,1.1,42.83,42.83,0,0,0,12.6-2.2,63.33,63.33,0,0,0,14.1-6.4A40.13,40.13,0,0,0,508.7,273a21.86,21.86,0,0,0,4.5-13.4,19.45,19.45,0,0,0-3.7-11.5c-2.5-3.5-6.6-6.4-12.3-8.6s-13.4-3.3-23-3.3a53.24,53.24,0,0,0-7.8.6,27.11,27.11,0,0,0-7.8,2.4,3.75,3.75,0,0,0-1.1.1,2.77,2.77,0,0,1-.9.1c-2.5,0-4.3-.6-5.4-1.9a6.08,6.08,0,0,1-1.6-4.1,6.45,6.45,0,0,1,1.2-3.9,3.43,3.43,0,0,1,2.6-1.7,102.84,102.84,0,0,0,18-2.4,72,72,0,0,0,17-6.4,105.75,105.75,0,0,0,13.1-8.2,54.57,54.57,0,0,0,11.8-11.7,24.72,24.72,0,0,0,4.9-15c0-3.9-1.2-7-3.7-9.3a25.65,25.65,0,0,0-9.8-5.5,66.61,66.61,0,0,0-13.3-2.7,136.35,136.35,0,0,0-14.2-.7c-4.5,0-8.8.1-12.7.4s-7,.5-9.3.8c-3.2.3-7.7.9-13.6,2s-12.2,2.5-18.9,4.2a131.26,131.26,0,0,0-19.2,6.5,61.84,61.84,0,0,0-15,8.8c-3.9,3.3-5.9,7-5.9,11.1a9.73,9.73,0,0,0,4.1,8.1c2.7,2.1,6.2,3.1,10.5,3.1s9.4-1.2,14.9-3.5A59,59,0,0,0,429,195.9c.3-.3.5-.4.6-.4.3,0,.4.3.4.8a9.85,9.85,0,0,1-.8,3.2,10.65,10.65,0,0,1-2.8,3.8,45.22,45.22,0,0,1-15.6,9.5,48.06,48.06,0,0,1-16.6,3.1c-1.3,0-2.7-.1-4-.2a23.18,23.18,0,0,1-3.8-.6,19.16,19.16,0,0,1-10.7-6.4,17,17,0,0,1-3.9-11,22.39,22.39,0,0,1,5.8-15.4,48.74,48.74,0,0,1,15.3-11.1,113.32,113.32,0,0,1,20.8-7.6c7.5-2,15-3.6,22.3-4.8,3.3-.5,7.3-1,11.8-1.3s9.3-.5,14.4-.5a191,191,0,0,1,22.4,1.4,97.23,97.23,0,0,1,21.1,4.9,39.21,39.21,0,0,1,15.6,9.7,22,22,0,0,1,5.9,15.7,28.16,28.16,0,0,1-4.6,15.6,51.73,51.73,0,0,1-12,12.8,84.45,84.45,0,0,1-15.6,9.7,86.64,86.64,0,0,1-15.4,6,93.32,93.32,0,0,1,20.7,3.5,35.48,35.48,0,0,1,16.2,9.5c4.2,4.4,6.3,10.6,6.3,18.5a31,31,0,0,1-4.8,17.1,39.36,39.36,0,0,1-12.4,12.3,59.22,59.22,0,0,1-16.2,7.4A63.89,63.89,0,0,1,473.2,303.4Z"/><path class="cls-2" d="M543.1,293.8a11.52,11.52,0,0,1-8.7-3.5,22.75,22.75,0,0,1-4.7-8.5,42.22,42.22,0,0,1-1.8-9.3c-.2-2.8-.4-5.7-.5-8.8s-.2-6.4-.2-9.9c0-6.3.2-12.9.5-19.7s.9-13.3,1.7-19.7,1.7-12.1,2.8-17.1a64,64,0,0,1,2.9-8.8,27,27,0,0,1,5.2-8.5,9.85,9.85,0,0,1,7.6-3.6c6,0,9,4.6,9,13.7a103.83,103.83,0,0,1-1.7,15.4,139.43,139.43,0,0,1-6.3,22.5,128.13,128.13,0,0,1-5.4,13c-2.1,4.4-4.1,8.3-6.1,11.9a21.05,21.05,0,0,0-.2,2.5v2.5c0,3.5.1,7,.4,10.6a69.39,69.39,0,0,0,1.4,9.9,23.68,23.68,0,0,0,2.8,7.3,5.59,5.59,0,0,0,4.7,2.8,6.38,6.38,0,0,0,5.4-2.8,23.74,23.74,0,0,0,3.1-5.5,18.51,18.51,0,0,0,1.1-3.1c.4-1.1.7-2.3,1.1-3.5s1-1.7,1.7-1.7c.5,0,.8.6.8,1.7v.3a11.59,11.59,0,0,1-.4,2.8c-.3,1.1-.6,2.3-1,3.4a27.54,27.54,0,0,1-5.3,9.7A12.87,12.87,0,0,1,543.1,293.8Zm-5.6-47.6a183.49,183.49,0,0,0,7.3-17.3,166.17,166.17,0,0,0,5.4-18,70,70,0,0,0,2-16.1,30.94,30.94,0,0,0-.7-7.4c-.5-1.9-1.3-2.9-2.5-2.9s-2.2,1.2-3.1,3.5a56.86,56.86,0,0,0-2.7,9.1c-.8,3.8-1.5,7.9-2.2,12.2s-1.2,8.7-1.7,12.9-.8,8-1.1,11.2-.4,5.6-.5,7a22.75,22.75,0,0,1-.1,2.4C537.6,243.7,537.6,244.9,537.5,246.2Z"/><path class="cls-2" d="M575,294.7a12.36,12.36,0,0,1-8.4-2.8,17.27,17.27,0,0,1-5-7.2,37.27,37.27,0,0,1-2.4-9.7,73.67,73.67,0,0,1-.7-10.4c0-2.6.1-4.9.3-7.1s.4-4.1.5-5.8a52.86,52.86,0,0,1,3.3-13,27.22,27.22,0,0,1,7.6-10.9c3.3-2.9,7.7-4.4,13.2-4.4,3.7,0,6.7,1.2,8.7,3.7a22.45,22.45,0,0,1,4.4,9.6,55.47,55.47,0,0,1,1.3,12.4,101,101,0,0,1-.8,12.5,79.24,79.24,0,0,1-1.9,9.7,50.26,50.26,0,0,1-3.9,10.2,33.84,33.84,0,0,1-6.8,9.3A13.42,13.42,0,0,1,575,294.7Zm5-8.4a6.47,6.47,0,0,0,5.4-3.1,28,28,0,0,0,3.7-7.1,49.64,49.64,0,0,0,2.1-6.8,55.39,55.39,0,0,0,1-6.1,65.66,65.66,0,0,0,.4-7.8,57.49,57.49,0,0,0-1.4-12.4c-.9-4-2.6-6.9-5-8.5a3.3,3.3,0,0,1-.9-5.2,10.4,10.4,0,0,1,1.5-1.5,5.26,5.26,0,0,0-2.9-1.1c-1.8,0-3.4,1-4.9,3.1a30,30,0,0,0-3.6,7.4,79.46,79.46,0,0,0-2.3,8.2,44.58,44.58,0,0,0-1,5.5c-.1,1.1-.3,2.8-.5,5.1s-.3,4.8-.3,7.6A71.73,71.73,0,0,0,572,274a28.68,28.68,0,0,0,2.5,8.8C575.9,285.1,577.6,286.3,580,286.3Z"/><path class="cls-2" d="M617.5,294.9a19.3,19.3,0,0,1-11.5-3.3c-3.1-2.2-4.6-6.1-4.6-11.7a11.45,11.45,0,0,1,.1-1.5c.1-.8.1-1.6.2-2.4a9.89,9.89,0,0,1-.9-4.6,7.94,7.94,0,0,1,.6-3.2,2,2,0,0,1,1.8-1.4h.2c.3,0,.7.4,1.2,1.1q1.95-5.7,3.6-11.7c1.1-4,2.1-7.7,3-10.8,1-3.7,2.3-7.6,3.9-11.9a20.12,20.12,0,0,1,7.5-9.8,15.44,15.44,0,0,1,8.5-2.6,2.49,2.49,0,0,1,.8.1,2.49,2.49,0,0,0,.8.1c.8.1,1.2.5,1.2,1.1a1,1,0,0,1-1.1,1.1q-1.65.15-2.4,2.7a20.32,20.32,0,0,0-.8,5.8v1.7a4.68,4.68,0,0,0,.2,1.7,52.42,52.42,0,0,0,2.7,11.1c1.4,4,2.8,8.1,4,12.1a36.65,36.65,0,0,1,1.9,11.3v.8c0,1.3-.1,2.8-.2,4.3a24.24,24.24,0,0,1-1,4.5c1.4-.1,2.8-.3,4.2-.5a28,28,0,0,0,3.7-1,11,11,0,0,0,3.4-2.1,10.11,10.11,0,0,0,2.2-2.8,1,1,0,0,1,.8-.5q1.2,0,1.2,1.5a2.61,2.61,0,0,1-.3,1.1,11.89,11.89,0,0,1-6.1,5.5,26.91,26.91,0,0,1-10.3,2.5,18.47,18.47,0,0,1-18.5,11.7Zm-4.1-5.1h.6a13.92,13.92,0,0,0,5.5-1.9,9.05,9.05,0,0,0,3.9-5c0-.1,0-.2.1-.2s.1-.1.1-.2a80.36,80.36,0,0,1-10.5-1.5,36.14,36.14,0,0,1-8-2.5,2.77,2.77,0,0,1-.1.9,2.49,2.49,0,0,0-.1.8c0,3.1.8,5.5,2.4,7.1A7.64,7.64,0,0,0,613.4,289.8Zm11.3-12.3c.2-1.1.4-2.3.5-3.5s.2-2.5.2-3.7c0-1.9-.1-3.9-.3-5.9s-.5-4-.8-5.9c-.7-4.8-1.5-9.2-2.5-13.2a44.31,44.31,0,0,1-1.4-10.7,21.38,21.38,0,0,1,.5-4.5c-.5,0-1.1.8-1.7,2.3s-1.2,3.3-1.8,5.2-1.1,3.7-1.5,5.2c-1.2,4.4-2.5,8.9-3.9,13.6s-2.9,9.2-4.6,13.7c1.1.7,2.4,1.4,3.9,2.2s2.9,1.4,4.3,2,2.8,1.2,4.3,1.8S623,277.1,624.7,277.5Z"/><path class="cls-2" d="M665.3,294.9a19.3,19.3,0,0,1-11.5-3.3c-3.1-2.2-4.6-6.1-4.6-11.7a11.45,11.45,0,0,1,.1-1.5c.1-.8.1-1.6.2-2.4a9.89,9.89,0,0,1-.9-4.6,7.94,7.94,0,0,1,.6-3.2,2,2,0,0,1,1.8-1.4h.2c.3,0,.7.4,1.2,1.1q2-5.7,3.6-11.7c1.1-4,2.1-7.7,3-10.8,1-3.7,2.3-7.6,3.9-11.9a20.12,20.12,0,0,1,7.5-9.8,15.44,15.44,0,0,1,8.5-2.6,2.49,2.49,0,0,1,.8.1,2.49,2.49,0,0,0,.8.1c.8.1,1.2.5,1.2,1.1a1,1,0,0,1-1.1,1.1q-1.65.15-2.4,2.7a20.32,20.32,0,0,0-.8,5.8v1.7a4.68,4.68,0,0,0,.2,1.7,52.42,52.42,0,0,0,2.7,11.1c1.4,4,2.8,8.1,4,12.1a36.65,36.65,0,0,1,1.9,11.3v.8c0,1.3-.1,2.8-.2,4.3a24.24,24.24,0,0,1-1,4.5c1.4-.1,2.8-.3,4.2-.5a28,28,0,0,0,3.7-1,11,11,0,0,0,3.4-2.1,10.11,10.11,0,0,0,2.2-2.8,1,1,0,0,1,.8-.5q1.2,0,1.2,1.5a2.61,2.61,0,0,1-.3,1.1,11.89,11.89,0,0,1-6.1,5.5,26.91,26.91,0,0,1-10.3,2.5,18.47,18.47,0,0,1-18.5,11.7Zm-4.1-5.1h.6a13.92,13.92,0,0,0,5.5-1.9,9.05,9.05,0,0,0,3.9-5c0-.1,0-.2.1-.2s.1-.1.1-.2a80.36,80.36,0,0,1-10.5-1.5,36.14,36.14,0,0,1-8-2.5,2.77,2.77,0,0,1-.1.9,2.49,2.49,0,0,0-.1.8c0,3.1.8,5.5,2.4,7.1A7.64,7.64,0,0,0,661.2,289.8Zm11.3-12.3c.2-1.1.4-2.3.5-3.5s.2-2.5.2-3.7c0-1.9-.1-3.9-.3-5.9s-.5-4-.8-5.9c-.7-4.8-1.5-9.2-2.5-13.2a44.31,44.31,0,0,1-1.4-10.7,21.38,21.38,0,0,1,.5-4.5c-.5,0-1.1.8-1.7,2.3s-1.2,3.3-1.8,5.2-1.1,3.7-1.5,5.2c-1.2,4.4-2.5,8.9-3.9,13.6s-2.9,9.2-4.6,13.7c1.1.7,2.4,1.4,3.9,2.2s2.9,1.4,4.3,2,2.8,1.2,4.3,1.8S670.8,277.1,672.5,277.5Z"/><path class="cls-2" d="M715.2,294.7a12.36,12.36,0,0,1-8.4-2.8,17.27,17.27,0,0,1-5-7.2,37.27,37.27,0,0,1-2.4-9.7c-.5-3.5-11.5-11.8-11.5-15.2,0-2.6,11-.1,11.2-2.3s.4-4.1.5-5.8a52.86,52.86,0,0,1,3.3-13,27.22,27.22,0,0,1,7.6-10.9c3.3-2.9,7.7-4.4,13.2-4.4,3.7,0,6.7,1.2,8.7,3.7a22.45,22.45,0,0,1,4.4,9.6,55.47,55.47,0,0,1,1.3,12.4,101,101,0,0,1-.8,12.5,79.24,79.24,0,0,1-1.9,9.7,50.26,50.26,0,0,1-3.9,10.2,33.84,33.84,0,0,1-6.8,9.3A13.83,13.83,0,0,1,715.2,294.7Zm5-8.4a6.47,6.47,0,0,0,5.4-3.1,28,28,0,0,0,3.7-7.1,49.64,49.64,0,0,0,2.1-6.8,55.39,55.39,0,0,0,1-6.1,65.66,65.66,0,0,0,.4-7.8,57.49,57.49,0,0,0-1.4-12.4c-.9-4-2.6-6.9-5-8.5a3.3,3.3,0,0,1-.9-5.2,10.4,10.4,0,0,1,1.5-1.5,5.26,5.26,0,0,0-2.9-1.1c-1.8,0-3.4,1-4.9,3.1a30,30,0,0,0-3.6,7.4,79.46,79.46,0,0,0-2.3,8.2,44.58,44.58,0,0,0-1,5.5c-.1,1.1-.3,2.8-.5,5.1s-.3,4.8-.3,7.6a71.73,71.73,0,0,0,.7,10.4,28.68,28.68,0,0,0,2.5,8.8C716.1,285.1,717.9,286.3,720.2,286.3Z"/><path class="cls-2" d="M751.3,294.4c-2.7,0-4.1-1.8-4.1-5.5a14.08,14.08,0,0,1,.1-2,19.53,19.53,0,0,1,.2-2.3,69.32,69.32,0,0,0,.8-7.4c.2-3.2.4-6.9.5-10.9s.2-8.1.2-12.1c0-4.5-.1-8.7-.4-12.7a46,46,0,0,0-1.4-9.3,8.67,8.67,0,0,0,3.3-1.7,9.9,9.9,0,0,1,3.9-1.8,3.73,3.73,0,0,1,1.2-.2c1.7,0,2.8.9,3.3,2.8a26.31,26.31,0,0,1,.7,6.8c0,1.8,0,4-.1,6.5s-.2,4.7-.4,6.5a53,53,0,0,1,3.6-8.5c1.3-2.4,2.7-4.7,4.2-7a32.3,32.3,0,0,1,6.6-7.7c2.3-1.8,4.4-2.8,6.5-2.8,2.4,0,4,.7,4.8,2.2a11.49,11.49,0,0,1,1.1,5.5c0,1.4-.1,2.9-.2,4.5s-.3,3.1-.4,4.7l-.9,13.7,1.5-4.6a53,53,0,0,1,3.6-8.5c1.3-2.4,2.7-4.7,4.2-7a32.3,32.3,0,0,1,6.6-7.7c2.3-1.8,4.4-2.8,6.5-2.8,2.8,0,4.7.9,5.5,2.8a17.94,17.94,0,0,1,1.2,7c0,1.1,0,2.3-.1,3.5s-.1,2.4-.2,3.6q-.15,2.1-.6,8.7c-.3,4.4-.6,9-.8,14,0,.4,0,1.2-.1,2.5s-.1,2.6-.1,4.1a63.42,63.42,0,0,0,.4,7.4,28.9,28.9,0,0,0,1.5,6.7c.8,1.8,1.8,2.8,3.3,2.8a5.93,5.93,0,0,0,4.9-2.8A29.65,29.65,0,0,0,825,279a43.38,43.38,0,0,0,1.7-5.5q.6-1.8,1.5-1.8t.9,1.8v.3a11.59,11.59,0,0,1-.4,2.8c-.3,1.1-.6,2.3-1,3.4a29.22,29.22,0,0,1-5.2,9.9c-2.2,2.8-5.5,4.2-9.7,4.2-3.4,0-6-1.1-7.7-3.3a17.06,17.06,0,0,1-3.3-7.9,45.7,45.7,0,0,1-.8-8.8v-2.8c.2-4.5.4-8.4.5-11.7s.2-6.7.3-10.2a12.13,12.13,0,0,1,.1-1.8,18.52,18.52,0,0,0,.1-2.5,36.57,36.57,0,0,0-.5-5.7c-.3-1.8-1-2.8-2.1-2.8-.8,0-2.1,1.1-3.9,3.4a47.27,47.27,0,0,0-4.9,9.4,74,74,0,0,0-4.2,13.7,75.45,75.45,0,0,0-1.7,16c0,1.9.1,3.9.2,5.8s.4,3.8.8,5.8c-.2.1-.6.3-1.1.5a6,6,0,0,1-2,.3,7.13,7.13,0,0,1-3.5-1.1q-1.8-1-3-4.5a26.79,26.79,0,0,1-1.4-6.5,55.29,55.29,0,0,1-.4-7.1c0-3.6.2-7.2.5-10.9s.6-7.3.8-10.9V248c0-1.3-.1-2.8-.2-4.5a19.07,19.07,0,0,0-.8-4.5c-.5-1.3-1.1-1.9-2-1.9-1.1,0-2.4,1-3.8,2.9a48.56,48.56,0,0,0-5.3,9.9,101.92,101.92,0,0,0-4.6,14.7,79.07,79.07,0,0,0-1.8,17,64.11,64.11,0,0,0,.9,10.6,25.18,25.18,0,0,1-3.4,1.5A8.52,8.52,0,0,1,751.3,294.4Z"/></svg>